STARTFONT 2.1
COMMENT "14-point bold 3270 font"
COMMENT "Uses nonstandard ordering:"
COMMENT " Page 0: EBCDIC US-International set, CG order"
COMMENT " Page 1: EBCDIC APL/APL2 set, CG order"
COMMENT " Page 2: (first 16 characters only) DEC line-drawing characters from"
COMMENT "  fixed-width X fonts"
COMMENT ""
COMMENT "Modifications Copyright 1993, 1994, 1995, 2000, 2001, 2002 by Paul"
COMMENT " Mattes."
COMMENT "Original X11 Port Copyright 1990 by Jeff Sparkes."
COMMENT " Permission to use, copy, modify, and distribute this software and"
COMMENT " its documentation for any purpose and without fee is hereby"
COMMENT " granted, provided that the above copyright notice appear in all"
COMMENT " copies and that both that copyright notice and this permission"
COMMENT " notice appear in supporting documentation."
COMMENT ""
COMMENT "Copyright 1989 by Georgia Tech Research Corporation, Atlanta, GA"
COMMENT "30332.  All Rights Reserved."
COMMENT " GTRC hereby grants public use of this software.  Derivative"
COMMENT " works based on this software must incorporate this copyright"
COMMENT " notice."
COMMENT ""
COMMENT "x3270 is distributed in the hope that it will be useful, but WITHOUT"
COMMENT "ANY WARRANTY; without even the implied warranty of MERCHANTABILITY"
COMMENT "or FITNESS FOR A PARTICULAR PURPOSE.  See the file LICENSE for more"
COMMENT "details."
FONT 3270ebold
SIZE 14 72 72
FONTBOUNDINGBOX 9 14 0 -3
STARTPROPERTIES 18
FONTNAME_REGISTRY ""
FOUNDRY "Misc"
FAMILY_NAME "3270"
WEIGHT_NAME "Bold"
SLANT "R"
SETWIDTH_NAME "Normal"
PIXEL_SIZE 14
POINT_SIZE 140
RESOLUTION_X 72
RESOLUTION_Y 72
SPACING "C"
CHARSET_REGISTRY "3270cg"
CHARSET_ENCODING "15a"
AVERAGE_WIDTH 90
DEFAULT_CHAR 514
FONT_ASCENT 11
FONT_DESCENT 3
_XMBDFED_INFO "Edited with xmbdfed 4.5."
ENDPROPERTIES
CHARS 427
STARTCHAR null
ENCODING 0
SWIDTH 642 0
DWIDTH 9 0
BBX 9 14 0 -3
BITMAP
0000
0000
0000
0000
0000
0000
0000
0000
0000
0000
0000
0000
0000
0000
ENDCHAR
STARTCHAR nobreakspace
ENCODING 1
SWIDTH 642 0
DWIDTH 9 0
BBX 9 14 0 -3
BITMAP
0000
0000
0000
0000
0000
0000
0000
0000
0000
0000
0000
0000
0000
0000
ENDCHAR
STARTCHAR ff
ENCODING 2
SWIDTH 642 0
DWIDTH 9 0
BBX 9 14 0 -3
BITMAP
0000
0000
0000
0000
0000
0000
0000
0000
0000
0000
0000
0000
0000
0000
ENDCHAR
STARTCHAR cr
ENCODING 3
SWIDTH 642 0
DWIDTH 9 0
BBX 9 14 0 -3
BITMAP
0000
0000
0000
0000
0000
0000
0000
0000
0000
0000
0000
0000
0000
0000
ENDCHAR
STARTCHAR nl
ENCODING 4
SWIDTH 642 0
DWIDTH 9 0
BBX 9 14 0 -3
BITMAP
0000
0000
0000
0000
0000
0000
0000
0000
0000
0000
0000
0000
0000
0000
ENDCHAR
STARTCHAR em
ENCODING 5
SWIDTH 642 0
DWIDTH 9 0
BBX 9 14 0 -3
BITMAP
0000
0000
0000
0000
0000
0000
0000
0000
0000
0000
0000
0000
0000
0000
ENDCHAR
STARTCHAR eightones
ENCODING 6
SWIDTH 642 0
DWIDTH 9 0
BBX 9 14 0 -3
BITMAP
0000
0000
0000
1C00
3E00
7F00
7F00
7F00
3E00
1C00
0000
0000
0000
0000
ENDCHAR
STARTCHAR hyphen
ENCODING 7
SWIDTH 642 0
DWIDTH 9 0
BBX 9 14 0 -3
BITMAP
0000
0000
0000
0000
0000
0000
3F00
0000
0000
0000
0000
0000
0000
0000
ENDCHAR
STARTCHAR greater
ENCODING 8
SWIDTH 642 0
DWIDTH 9 0
BBX 9 14 0 -3
BITMAP
0000
0000
3000
1800
0C00
0600
0300
0600
0C00
1800
3000
0000
0000
0000
ENDCHAR
STARTCHAR less
ENCODING 9
SWIDTH 642 0
DWIDTH 9 0
BBX 9 14 0 -3
BITMAP
0000
0000
0300
0600
0C00
1800
3000
1800
0C00
0600
0300
0000
0000
0000
ENDCHAR
STARTCHAR bracketleft
ENCODING 10
SWIDTH 642 0
DWIDTH 9 0
BBX 9 14 0 -3
BITMAP
0000
1E00
1800
1800
1800
1800
1800
1800
1800
1800
1800
1E00
0000
0000
ENDCHAR
STARTCHAR bracketright
ENCODING 11
SWIDTH 642 0
DWIDTH 9 0
BBX 9 14 0 -3
BITMAP
0000
1E00
0600
0600
0600
0600
0600
0600
0600
0600
0600
1E00
0000
0000
ENDCHAR
STARTCHAR parenright
ENCODING 12
SWIDTH 642 0
DWIDTH 9 0
BBX 9 14 0 -3
BITMAP
0000
0000
1800
0C00
0600
0600
0600
0600
0600
0C00
1800
0000
0000
0000
ENDCHAR
STARTCHAR parenleft
ENCODING 13
SWIDTH 642 0
DWIDTH 9 0
BBX 9 14 0 -3
BITMAP
0000
0000
0600
0C00
1800
1800
1800
1800
1800
0C00
0600
0000
0000
0000
ENDCHAR
STARTCHAR braceright
ENCODING 14
SWIDTH 642 0
DWIDTH 9 0
BBX 9 14 0 -3
BITMAP
0000
3800
0C00
0C00
0C00
0C00
0600
0C00
0C00
0C00
0C00
3800
0000
0000
ENDCHAR
STARTCHAR braceleft
ENCODING 15
SWIDTH 642 0
DWIDTH 9 0
BBX 9 14 0 -3
BITMAP
0000
0E00
1800
1800
1800
1800
3000
1800
1800
1800
1800
0E00
0000
0000
ENDCHAR
STARTCHAR space
ENCODING 16
SWIDTH 642 0
DWIDTH 9 0
BBX 9 14 0 -3
BITMAP
0000
0000
0000
0000
0000
0000
0000
0000
0000
0000
0000
0000
0000
0000
ENDCHAR
STARTCHAR equal
ENCODING 17
SWIDTH 642 0
DWIDTH 9 0
BBX 9 14 0 -3
BITMAP
0000
0000
0000
0000
7F80
0000
0000
7F80
0000
0000
0000
0000
0000
0000
ENDCHAR
STARTCHAR apostrophe
ENCODING 18
SWIDTH 642 0
DWIDTH 9 0
BBX 9 14 0 -3
BITMAP
0000
0C00
0C00
0C00
0000
0000
0000
0000
0000
0000
0000
0000
0000
0000
ENDCHAR
STARTCHAR quotedbl
ENCODING 19
SWIDTH 642 0
DWIDTH 9 0
BBX 9 14 0 -3
BITMAP
0000
3600
3600
3600
0000
0000
0000
0000
0000
0000
0000
0000
0000
0000
ENDCHAR
STARTCHAR slash
ENCODING 20
SWIDTH 642 0
DWIDTH 9 0
BBX 9 14 0 -3
BITMAP
0000
0000
0000
0180
0300
0600
0C00
1800
3000
6000
0000
0000
0000
0000
ENDCHAR
STARTCHAR backslash
ENCODING 21
SWIDTH 642 0
DWIDTH 9 0
BBX 9 14 0 -3
BITMAP
0000
0000
0000
6000
3000
1800
0C00
0600
0300
0180
0000
0000
0000
0000
ENDCHAR
STARTCHAR bar
ENCODING 22
SWIDTH 642 0
DWIDTH 9 0
BBX 9 14 0 -3
BITMAP
0C00
0C00
0C00
0C00
0C00
0C00
0C00
0C00
0C00
0C00
0C00
0C00
0C00
0000
ENDCHAR
STARTCHAR brokenbar
ENCODING 23
SWIDTH 642 0
DWIDTH 9 0
BBX 9 14 0 -3
BITMAP
0000
0C00
0C00
0C00
0C00
0C00
0000
0000
0C00
0C00
0C00
0C00
0C00
0000
ENDCHAR
STARTCHAR question
ENCODING 24
SWIDTH 642 0
DWIDTH 9 0
BBX 9 14 0 -3
BITMAP
0000
1F00
3180
3180
0300
0600
0C00
0C00
0000
0000
0C00
0000
0000
0000
ENDCHAR
STARTCHAR exclam
ENCODING 25
SWIDTH 642 0
DWIDTH 9 0
BBX 9 14 0 -3
BITMAP
0000
0C00
0C00
0C00
0C00
0C00
0C00
0C00
0000
0000
0C00
0000
0000
0000
ENDCHAR
STARTCHAR dollar
ENCODING 26
SWIDTH 642 0
DWIDTH 9 0
BBX 9 14 0 -3
BITMAP
0000
0C00
0C00
3F80
6C00
6C00
3F00
0D80
0D80
7F00
0C00
0C00
0000
0000
ENDCHAR
STARTCHAR cent
ENCODING 27
SWIDTH 642 0
DWIDTH 9 0
BBX 9 14 0 -3
BITMAP
0000
0C00
0C00
3F00
6C00
6C00
6C00
3F00
0C00
0C00
0000
0000
0000
0000
ENDCHAR
STARTCHAR sterling
ENCODING 28
SWIDTH 642 0
DWIDTH 9 0
BBX 9 14 0 -3
BITMAP
0000
0E00
1B00
1800
1800
7E00
1800
1800
1800
7980
7F00
0000
0000
0000
ENDCHAR
STARTCHAR yen
ENCODING 29
SWIDTH 642 0
DWIDTH 9 0
BBX 9 14 0 -3
BITMAP
0000
6180
3300
1E00
0C00
7F80
0C00
0C00
7F80
0C00
0C00
0000
0000
0000
ENDCHAR
STARTCHAR paragraph
ENCODING 30
SWIDTH 642 0
DWIDTH 9 0
BBX 9 14 0 -3
BITMAP
0000
7C00
6600
6600
6600
7C00
6000
6600
6F00
6600
6600
0600
0000
0000
ENDCHAR
STARTCHAR euro
ENCODING 31
SWIDTH 642 0
DWIDTH 9 0
BBX 9 14 0 -3
BITMAP
0000
0000
1F00
3980
3000
7E00
3000
7C00
3000
3980
1F00
0000
0000
0000
ENDCHAR
STARTCHAR 0
ENCODING 32
SWIDTH 642 0
DWIDTH 9 0
BBX 9 14 0 -3
BITMAP
0000
1E00
3300
6180
6180
6D80
6D80
6180
6180
3300
1E00
0000
0000
0000
ENDCHAR
STARTCHAR 1
ENCODING 33
SWIDTH 642 0
DWIDTH 9 0
BBX 9 14 0 -3
BITMAP
0000
0C00
1C00
3C00
0C00
0C00
0C00
0C00
0C00
0C00
0C00
0000
0000
0000
ENDCHAR
STARTCHAR 2
ENCODING 34
SWIDTH 642 0
DWIDTH 9 0
BBX 9 14 0 -3
BITMAP
0000
1F00
3180
6180
0180
0300
0600
0C00
1800
3000
7F80
0000
0000
0000
ENDCHAR
STARTCHAR 3
ENCODING 35
SWIDTH 642 0
DWIDTH 9 0
BBX 9 14 0 -3
BITMAP
0000
3F80
0180
0300
0600
0E00
0300
0180
0180
6300
3E00
0000
0000
0000
ENDCHAR
STARTCHAR 4
ENCODING 36
SWIDTH 642 0
DWIDTH 9 0
BBX 9 14 0 -3
BITMAP
0000
0700
0F00
1B00
3300
6300
6300
7F80
0300
0300
0300
0000
0000
0000
ENDCHAR
STARTCHAR 5
ENCODING 37
SWIDTH 642 0
DWIDTH 9 0
BBX 9 14 0 -3
BITMAP
0000
7F80
6000
6000
7E00
0300
0180
0180
0180
0300
7E00
0000
0000
0000
ENDCHAR
STARTCHAR 6
ENCODING 38
SWIDTH 642 0
DWIDTH 9 0
BBX 9 14 0 -3
BITMAP
0000
1800
3000
6000
6000
7E00
7300
6180
6180
3300
1E00
0000
0000
0000
ENDCHAR
STARTCHAR 7
ENCODING 39
SWIDTH 642 0
DWIDTH 9 0
BBX 9 14 0 -3
BITMAP
0000
7F80
0180
0300
0600
0C00
1800
1800
1800
1800
1800
0000
0000
0000
ENDCHAR
STARTCHAR 8
ENCODING 40
SWIDTH 642 0
DWIDTH 9 0
BBX 9 14 0 -3
BITMAP
0000
1E00
3300
3300
3300
1E00
3300
6180
6180
3300
1E00
0000
0000
0000
ENDCHAR
STARTCHAR 9
ENCODING 41
SWIDTH 642 0
DWIDTH 9 0
BBX 9 14 0 -3
BITMAP
0000
1F00
3180
6180
6380
6780
3D80
0180
0180
0180
0300
0000
0000
0000
ENDCHAR
STARTCHAR ssharp
ENCODING 42
SWIDTH 642 0
DWIDTH 9 0
BBX 9 14 0 -3
BITMAP
0000
1C00
3600
6600
6C00
6600
6300
6180
6180
7980
6F00
0000
0000
0000
ENDCHAR
STARTCHAR section
ENCODING 43
SWIDTH 642 0
DWIDTH 9 0
BBX 9 14 0 -3
BITMAP
0000
1E00
3000
3000
7800
6C00
6600
3300
1B00
0F00
0600
0600
3C00
0000
ENDCHAR
STARTCHAR numbersign
ENCODING 44
SWIDTH 642 0
DWIDTH 9 0
BBX 9 14 0 -3
BITMAP
0000
0000
3600
7F00
3600
3600
7F00
3600
0000
0000
0000
0000
0000
0000
ENDCHAR
STARTCHAR at
ENCODING 45
SWIDTH 642 0
DWIDTH 9 0
BBX 9 14 0 -3
BITMAP
0000
3F00
6180
6180
6F80
7F80
7F00
6000
6000
6000
3F80
0000
0000
0000
ENDCHAR
STARTCHAR percent
ENCODING 46
SWIDTH 642 0
DWIDTH 9 0
BBX 9 14 0 -3
BITMAP
0000
3000
7800
3180
0300
0600
0C00
1800
3000
6300
0780
0300
0000
0000
ENDCHAR
STARTCHAR underscore
ENCODING 47
SWIDTH 642 0
DWIDTH 9 0
BBX 9 14 0 -3
BITMAP
0000
0000
0000
0000
0000
0000
0000
0000
0000
0000
0000
7F80
0000
0000
ENDCHAR
STARTCHAR ampersand
ENCODING 48
SWIDTH 642 0
DWIDTH 9 0
BBX 9 14 0 -3
BITMAP
0000
0000
3800
6C00
6C00
6C00
3800
7980
6F00
6600
3F00
0180
0000
0000
ENDCHAR
STARTCHAR minus
ENCODING 49
SWIDTH 642 0
DWIDTH 9 0
BBX 9 14 0 -3
BITMAP
0000
0000
0000
0000
0000
0000
3F00
0000
0000
0000
0000
0000
0000
0000
ENDCHAR
STARTCHAR period
ENCODING 50
SWIDTH 642 0
DWIDTH 9 0
BBX 9 14 0 -3
BITMAP
0000
0000
0000
0000
0000
0000
0000
0000
0000
1C00
1C00
0000
0000
0000
ENDCHAR
STARTCHAR comma
ENCODING 51
SWIDTH 642 0
DWIDTH 9 0
BBX 9 14 0 -3
BITMAP
0000
0000
0000
0000
0000
0000
0000
0000
0000
0E00
0E00
1C00
3800
0000
ENDCHAR
STARTCHAR colon
ENCODING 52
SWIDTH 642 0
DWIDTH 9 0
BBX 9 14 0 -3
BITMAP
0000
0000
0000
0000
0000
1C00
1C00
0000
0000
1C00
1C00
0000
0000
0000
ENDCHAR
STARTCHAR plus
ENCODING 53
SWIDTH 642 0
DWIDTH 9 0
BBX 9 14 0 -3
BITMAP
0000
0000
0000
0C00
0C00
0C00
7F80
0C00
0C00
0C00
0000
0000
0000
0000
ENDCHAR
STARTCHAR notsign
ENCODING 54
SWIDTH 642 0
DWIDTH 9 0
BBX 9 14 0 -3
BITMAP
0000
0000
7F80
0180
0180
0000
0000
0000
0000
0000
0000
0000
0000
0000
ENDCHAR
STARTCHAR macron
ENCODING 55
SWIDTH 642 0
DWIDTH 9 0
BBX 9 14 0 -3
BITMAP
0000
7F80
0000
0000
0000
0000
0000
0000
0000
0000
0000
0000
0000
0000
ENDCHAR
STARTCHAR degree
ENCODING 56
SWIDTH 642 0
DWIDTH 9 0
BBX 9 14 0 -3
BITMAP
0000
1C00
3600
3600
1C00
0000
0000
0000
0000
0000
0000
0000
0000
0000
ENDCHAR
STARTCHAR periodcentered
ENCODING 57
SWIDTH 642 0
DWIDTH 9 0
BBX 9 14 0 -3
BITMAP
0000
0000
0000
0000
0000
0000
0E00
0E00
0000
0000
0000
0000
0000
0000
ENDCHAR
STARTCHAR asciicircum
ENCODING 58
SWIDTH 642 0
DWIDTH 9 0
BBX 9 14 0 -3
BITMAP
0000
0C00
1E00
3300
0000
0000
0000
0000
0000
0000
0000
0000
0000
0000
ENDCHAR
STARTCHAR asciitilde
ENCODING 59
SWIDTH 642 0
DWIDTH 9 0
BBX 9 14 0 -3
BITMAP
0000
3800
6D80
0700
0000
0000
0000
0000
0000
0000
0000
0000
0000
0000
ENDCHAR
STARTCHAR diaeresis
ENCODING 60
SWIDTH 642 0
DWIDTH 9 0
BBX 9 14 0 -3
BITMAP
0000
7380
7380
0000
0000
0000
0000
0000
0000
0000
0000
0000
0000
0000
ENDCHAR
STARTCHAR grave
ENCODING 61
SWIDTH 642 0
DWIDTH 9 0
BBX 9 14 0 -3
BITMAP
0000
1800
0C00
0600
0000
0000
0000
0000
0000
0000
0000
0000
0000
0000
ENDCHAR
STARTCHAR acute
ENCODING 62
SWIDTH 642 0
DWIDTH 9 0
BBX 9 14 0 -3
BITMAP
0000
0600
0C00
1800
0000
0000
0000
0000
0000
0000
0000
0000
0000
0000
ENDCHAR
STARTCHAR cedilla
ENCODING 63
SWIDTH 642 0
DWIDTH 9 0
BBX 9 14 0 -3
BITMAP
0000
0000
0000
0000
0000
0000
0000
0000
0000
0C00
0C00
0C00
3800
0000
ENDCHAR
STARTCHAR agrave
ENCODING 64
SWIDTH 642 0
DWIDTH 9 0
BBX 9 14 0 -3
BITMAP
3000
1800
0C00
0000
3E00
0300
0300
3F00
6300
6300
3F80
0000
0000
0000
ENDCHAR
STARTCHAR egrave
ENCODING 65
SWIDTH 642 0
DWIDTH 9 0
BBX 9 14 0 -3
BITMAP
3000
1800
0C00
0000
3E00
6300
6300
7F00
6000
6000
3F00
0000
0000
0000
ENDCHAR
STARTCHAR igrave
ENCODING 66
SWIDTH 642 0
DWIDTH 9 0
BBX 9 14 0 -3
BITMAP
1800
0C00
0600
0000
0000
0C00
0C00
0C00
0C00
0C00
0C00
0000
0000
0000
ENDCHAR
STARTCHAR ograve
ENCODING 67
SWIDTH 642 0
DWIDTH 9 0
BBX 9 14 0 -3
BITMAP
3000
1800
0C00
0000
3E00
6300
6300
6300
6300
6300
3E00
0000
0000
0000
ENDCHAR
STARTCHAR ugrave
ENCODING 68
SWIDTH 642 0
DWIDTH 9 0
BBX 9 14 0 -3
BITMAP
3000
1800
0C00
0000
6300
6300
6300
6300
6300
6300
3F80
0000
0000
0000
ENDCHAR
STARTCHAR atilde
ENCODING 69
SWIDTH 642 0
DWIDTH 9 0
BBX 9 14 0 -3
BITMAP
0000
1D80
3700
0000
3E00
0300
0300
3F00
6300
6300
3F80
0000
0000
0000
ENDCHAR
STARTCHAR otilde
ENCODING 70
SWIDTH 642 0
DWIDTH 9 0
BBX 9 14 0 -3
BITMAP
0000
3B00
6E00
0000
3E00
6300
6300
6300
6300
6300
3E00
0000
0000
0000
ENDCHAR
STARTCHAR ydiaeresis
ENCODING 71
SWIDTH 642 0
DWIDTH 9 0
BBX 9 14 0 -3
BITMAP
0000
3600
0000
0000
6300
6300
6300
6300
3300
1E00
0C00
1800
3000
6000
ENDCHAR
STARTCHAR Yacute
ENCODING 72
SWIDTH 642 0
DWIDTH 9 0
BBX 9 14 0 -3
BITMAP
0300
0600
6D80
3300
1E00
0C00
0C00
0C00
0C00
0C00
0C00
0000
0000
0000
ENDCHAR
STARTCHAR yacute
ENCODING 73
SWIDTH 642 0
DWIDTH 9 0
BBX 9 14 0 -3
BITMAP
0600
0C00
1800
0000
6300
6300
6300
6300
3300
1E00
0C00
1800
3000
6000
ENDCHAR
STARTCHAR eacute
ENCODING 74
SWIDTH 642 0
DWIDTH 9 0
BBX 9 14 0 -3
BITMAP
0300
0600
0C00
0000
3E00
6300
6300
7F00
6000
6000
3F00
0000
0000
0000
ENDCHAR
STARTCHAR onequarter
ENCODING 75
SWIDTH 642 0
DWIDTH 9 0
BBX 9 14 0 -3
BITMAP
0000
0000
3000
7000
3000
3000
7B00
0700
0F00
0F80
0300
0000
0000
0000
ENDCHAR
STARTCHAR onehalf
ENCODING 76
SWIDTH 642 0
DWIDTH 9 0
BBX 9 14 0 -3
BITMAP
0000
0000
3000
7000
3000
3000
7F00
0180
0300
0600
0780
0000
0000
0000
ENDCHAR
STARTCHAR threequarters
ENCODING 77
SWIDTH 642 0
DWIDTH 9 0
BBX 9 14 0 -3
BITMAP
0000
0000
3800
6C00
1800
6C00
3B00
0700
0F00
0F80
0300
0000
0000
0000
ENDCHAR
STARTCHAR udiaeresis
ENCODING 78
SWIDTH 642 0
DWIDTH 9 0
BBX 9 14 0 -3
BITMAP
0000
3600
0000
0000
6300
6300
6300
6300
6300
6300
3F80
0000
0000
0000
ENDCHAR
STARTCHAR ccedilla
ENCODING 79
SWIDTH 642 0
DWIDTH 9 0
BBX 9 14 0 -3
BITMAP
0000
0000
0000
0000
1F00
3000
6000
6000
6000
3000
1F00
0C00
3C00
0000
ENDCHAR
STARTCHAR adiaeresis
ENCODING 80
SWIDTH 642 0
DWIDTH 9 0
BBX 9 14 0 -3
BITMAP
0000
3600
0000
0000
3E00
0300
0300
3F00
6300
6300
3F80
0000
0000
0000
ENDCHAR
STARTCHAR ediaeresis
ENCODING 81
SWIDTH 642 0
DWIDTH 9 0
BBX 9 14 0 -3
BITMAP
0000
3600
0000
0000
3E00
6300
6300
7F00
6000
6000
3F00
0000
0000
0000
ENDCHAR
STARTCHAR idiaeresis
ENCODING 82
SWIDTH 642 0
DWIDTH 9 0
BBX 9 14 0 -3
BITMAP
0000
3300
0000
0000
0C00
0C00
0C00
0C00
0C00
0C00
0C00
0000
0000
0000
ENDCHAR
STARTCHAR odiaeresis
ENCODING 83
SWIDTH 642 0
DWIDTH 9 0
BBX 9 14 0 -3
BITMAP
0000
3600
0000
0000
3E00
6300
6300
6300
6300
6300
3E00
0000
0000
0000
ENDCHAR
STARTCHAR mu
ENCODING 84
SWIDTH 642 0
DWIDTH 9 0
BBX 9 14 0 -3
BITMAP
0000
0000
0000
0000
0000
6300
6300
6300
6300
6300
6300
7F80
6000
6000
ENDCHAR
STARTCHAR acircumflex
ENCODING 85
SWIDTH 642 0
DWIDTH 9 0
BBX 9 14 0 -3
BITMAP
0000
0C00
1E00
0000
3E00
0300
0300
3F00
6300
6300
3F80
0000
0000
0000
ENDCHAR
STARTCHAR ecircumflex
ENCODING 86
SWIDTH 642 0
DWIDTH 9 0
BBX 9 14 0 -3
BITMAP
0000
0C00
1E00
0000
3E00
6300
6300
7F00
6000
6000
3F00
0000
0000
0000
ENDCHAR
STARTCHAR icircumflex
ENCODING 87
SWIDTH 642 0
DWIDTH 9 0
BBX 9 14 0 -3
BITMAP
0000
0C00
1E00
0000
0000
0C00
0C00
0C00
0C00
0C00
0C00
0000
0000
0000
ENDCHAR
STARTCHAR ocircumflex
ENCODING 88
SWIDTH 642 0
DWIDTH 9 0
BBX 9 14 0 -3
BITMAP
0000
0C00
1E00
0000
1E00
3300
3300
3300
3300
3300
1E00
0000
0000
0000
ENDCHAR
STARTCHAR ucircumflex
ENCODING 89
SWIDTH 642 0
DWIDTH 9 0
BBX 9 14 0 -3
BITMAP
0000
1800
3C00
0000
6600
6600
6600
6600
6600
6600
3F00
0000
0000
0000
ENDCHAR
STARTCHAR aacute
ENCODING 90
SWIDTH 642 0
DWIDTH 9 0
BBX 9 14 0 -3
BITMAP
0300
0600
0C00
0000
3E00
0300
0300
3F00
6300
6300
3F80
0000
0000
0000
ENDCHAR
STARTCHAR multiply
ENCODING 91
SWIDTH 642 0
DWIDTH 9 0
BBX 9 14 0 -3
BITMAP
0000
0000
0000
0000
3300
1E00
0C00
1E00
3300
0000
0000
0000
0000
0000
ENDCHAR
STARTCHAR iacute
ENCODING 92
SWIDTH 642 0
DWIDTH 9 0
BBX 9 14 0 -3
BITMAP
0600
0C00
1800
0000
0000
0C00
0C00
0C00
0C00
0C00
0C00
0000
0000
0000
ENDCHAR
STARTCHAR oacute
ENCODING 93
SWIDTH 642 0
DWIDTH 9 0
BBX 9 14 0 -3
BITMAP
0600
0C00
1800
0000
3E00
6300
6300
6300
6300
6300
3E00
0000
0000
0000
ENDCHAR
STARTCHAR uacute
ENCODING 94
SWIDTH 642 0
DWIDTH 9 0
BBX 9 14 0 -3
BITMAP
0600
0C00
1800
0000
6300
6300
6300
6300
6300
6300
3F80
0000
0000
0000
ENDCHAR
STARTCHAR ntilde
ENCODING 95
SWIDTH 642 0
DWIDTH 9 0
BBX 9 14 0 -3
BITMAP
0000
1D80
3700
0000
7F00
3180
3180
3180
3180
3180
3180
0000
0000
0000
ENDCHAR
STARTCHAR Agrave
ENCODING 96
SWIDTH 642 0
DWIDTH 9 0
BBX 9 14 0 -3
BITMAP
0C00
0600
0300
0C00
1E00
3300
6180
7F80
6180
6180
6180
0000
0000
0000
ENDCHAR
STARTCHAR Egrave
ENCODING 97
SWIDTH 642 0
DWIDTH 9 0
BBX 9 14 0 -3
BITMAP
3000
1800
0C00
7F80
6000
6000
7E00
6000
6000
6000
7F80
0000
0000
0000
ENDCHAR
STARTCHAR Igrave
ENCODING 98
SWIDTH 642 0
DWIDTH 9 0
BBX 9 14 0 -3
BITMAP
1800
0C00
0600
0000
1E00
0C00
0C00
0C00
0C00
0C00
1E00
0000
0000
0000
ENDCHAR
STARTCHAR Ograve
ENCODING 99
SWIDTH 642 0
DWIDTH 9 0
BBX 9 14 0 -3
BITMAP
3000
1800
0C00
3F00
6180
6180
6180
6180
6180
6180
3F00
0000
0000
0000
ENDCHAR
STARTCHAR Ugrave
ENCODING 100
SWIDTH 642 0
DWIDTH 9 0
BBX 9 14 0 -3
BITMAP
3000
1800
0C00
6180
6180
6180
6180
6180
6180
6180
3F00
0000
0000
0000
ENDCHAR
STARTCHAR Atilde
ENCODING 101
SWIDTH 642 0
DWIDTH 9 0
BBX 9 14 0 -3
BITMAP
0000
1D80
3700
0000
0C00
1E00
3300
6180
7F80
6180
6180
0000
0000
0000
ENDCHAR
STARTCHAR Otilde
ENCODING 102
SWIDTH 642 0
DWIDTH 9 0
BBX 9 14 0 -3
BITMAP
1D80
3700
3F00
6180
6180
6180
6180
6180
6180
6180
3F00
0000
0000
0000
ENDCHAR
STARTCHAR onesuperior
ENCODING 103
SWIDTH 642 0
DWIDTH 9 0
BBX 9 14 0 -3
BITMAP
0000
0000
0C00
1C00
0C00
0C00
1E00
0000
0000
0000
0000
0000
0000
0000
ENDCHAR
STARTCHAR twosuperior
ENCODING 104
SWIDTH 642 0
DWIDTH 9 0
BBX 9 14 0 -3
BITMAP
0000
0000
1C00
3600
0C00
1800
3E00
0000
0000
0000
0000
0000
0000
0000
ENDCHAR
STARTCHAR threesuperior
ENCODING 105
SWIDTH 642 0
DWIDTH 9 0
BBX 9 14 0 -3
BITMAP
0000
0000
1C00
3600
0C00
3600
1C00
0000
0000
0000
0000
0000
0000
0000
ENDCHAR
STARTCHAR ordfeminine
ENCODING 106
SWIDTH 642 0
DWIDTH 9 0
BBX 9 14 0 -3
BITMAP
1E00
0300
1F00
3300
1F00
0000
3F00
0000
0000
0000
0000
0000
0000
0000
ENDCHAR
STARTCHAR masculine
ENCODING 107
SWIDTH 642 0
DWIDTH 9 0
BBX 9 14 0 -3
BITMAP
1E00
3300
3300
3300
1E00
0000
3F00
0000
0000
0000
0000
0000
0000
0000
ENDCHAR
STARTCHAR guillemotleft
ENCODING 108
SWIDTH 642 0
DWIDTH 9 0
BBX 9 14 0 -3
BITMAP
0000
0000
0000
1980
3300
6600
3300
1980
0000
0000
0000
0000
0000
0000
ENDCHAR
STARTCHAR guillemotright
ENCODING 109
SWIDTH 642 0
DWIDTH 9 0
BBX 9 14 0 -3
BITMAP
0000
0000
0000
6600
3300
1980
3300
6600
0000
0000
0000
0000
0000
0000
ENDCHAR
STARTCHAR exclamdown
ENCODING 110
SWIDTH 642 0
DWIDTH 9 0
BBX 9 14 0 -3
BITMAP
0000
0C00
0000
0000
0C00
0C00
0C00
0C00
0C00
0C00
0C00
0000
0000
0000
ENDCHAR
STARTCHAR questiondown
ENCODING 111
SWIDTH 642 0
DWIDTH 9 0
BBX 9 14 0 -3
BITMAP
0000
0600
0000
0000
0600
0600
0C00
1800
3180
3180
1F00
0000
0000
0000
ENDCHAR
STARTCHAR Adiaeresis
ENCODING 112
SWIDTH 642 0
DWIDTH 9 0
BBX 9 14 0 -3
BITMAP
3300
0000
0C00
1E00
3300
6180
6180
7F80
6180
6180
6180
0000
0000
0000
ENDCHAR
STARTCHAR Ediaeresis
ENCODING 113
SWIDTH 642 0
DWIDTH 9 0
BBX 9 14 0 -3
BITMAP
3300
0000
7F80
6000
6000
6000
7E00
6000
6000
6000
7F80
0000
0000
0000
ENDCHAR
STARTCHAR Idiaeresis
ENCODING 114
SWIDTH 642 0
DWIDTH 9 0
BBX 9 14 0 -3
BITMAP
3300
0000
1E00
0C00
0C00
0C00
0C00
0C00
0C00
0C00
1E00
0000
0000
0000
ENDCHAR
STARTCHAR Odiaeresis
ENCODING 115
SWIDTH 642 0
DWIDTH 9 0
BBX 9 14 0 -3
BITMAP
3300
0000
3F00
6180
6180
6180
6180
6180
6180
6180
3F00
0000
0000
0000
ENDCHAR
STARTCHAR Udiaeresis
ENCODING 116
SWIDTH 642 0
DWIDTH 9 0
BBX 9 14 0 -3
BITMAP
3300
0000
6180
6180
6180
6180
6180
6180
6180
6180
3F00
0000
0000
0000
ENDCHAR
STARTCHAR Acircumflex
ENCODING 117
SWIDTH 642 0
DWIDTH 9 0
BBX 9 14 0 -3
BITMAP
0C00
1E00
0000
0C00
1E00
3300
6180
7F80
6180
6180
6180
0000
0000
0000
ENDCHAR
STARTCHAR Ecircumflex
ENCODING 118
SWIDTH 642 0
DWIDTH 9 0
BBX 9 14 0 -3
BITMAP
0C00
1E00
0000
7F80
6000
6000
6000
7E00
6000
6000
7F80
0000
0000
0000
ENDCHAR
STARTCHAR Icircumflex
ENCODING 119
SWIDTH 642 0
DWIDTH 9 0
BBX 9 14 0 -3
BITMAP
0C00
1E00
0000
1E00
0C00
0C00
0C00
0C00
0C00
0C00
1E00
0000
0000
0000
ENDCHAR
STARTCHAR Ocircumflex
ENCODING 120
SWIDTH 642 0
DWIDTH 9 0
BBX 9 14 0 -3
BITMAP
0C00
1E00
0000
3F00
6180
6180
6180
6180
6180
6180
3F00
0000
0000
0000
ENDCHAR
STARTCHAR Ucircumflex
ENCODING 121
SWIDTH 642 0
DWIDTH 9 0
BBX 9 14 0 -3
BITMAP
0C00
1E00
0000
6180
6180
6180
6180
6180
6180
6180
3F00
0000
0000
0000
ENDCHAR
STARTCHAR Aacute
ENCODING 122
SWIDTH 642 0
DWIDTH 9 0
BBX 9 14 0 -3
BITMAP
0C00
1800
3000
0C00
1E00
3300
6180
7F80
6180
6180
6180
0000
0000
0000
ENDCHAR
STARTCHAR Eacute
ENCODING 123
SWIDTH 642 0
DWIDTH 9 0
BBX 9 14 0 -3
BITMAP
0300
0600
0C00
7F80
6000
6000
6000
7E00
6000
6000
7F80
0000
0000
0000
ENDCHAR
STARTCHAR Iacute
ENCODING 124
SWIDTH 642 0
DWIDTH 9 0
BBX 9 14 0 -3
BITMAP
0600
0C00
1800
0000
1E00
0C00
0C00
0C00
0C00
0C00
1E00
0000
0000
0000
ENDCHAR
STARTCHAR Oacute
ENCODING 125
SWIDTH 642 0
DWIDTH 9 0
BBX 9 14 0 -3
BITMAP
0300
0600
0C00
3F00
6180
6180
6180
6180
6180
6180
3F00
0000
0000
0000
ENDCHAR
STARTCHAR Uacute
ENCODING 126
SWIDTH 642 0
DWIDTH 9 0
BBX 9 14 0 -3
BITMAP
0300
0600
0C00
6180
6180
6180
6180
6180
6180
6180
3F00
0000
0000
0000
ENDCHAR
STARTCHAR Ntilde
ENCODING 127
SWIDTH 642 0
DWIDTH 9 0
BBX 9 14 0 -3
BITMAP
0000
1D80
3700
0000
6180
7180
7980
6D80
6780
6380
6180
0000
0000
0000
ENDCHAR
STARTCHAR a
ENCODING 128
SWIDTH 642 0
DWIDTH 9 0
BBX 9 14 0 -3
BITMAP
0000
0000
0000
0000
3E00
0300
0300
3F00
6300
6300
3F80
0000
0000
0000
ENDCHAR
STARTCHAR b
ENCODING 129
SWIDTH 642 0
DWIDTH 9 0
BBX 9 14 0 -3
BITMAP
0000
6000
6000
6000
7C00
6600
6300
6300
6300
6600
7C00
0000
0000
0000
ENDCHAR
STARTCHAR c
ENCODING 130
SWIDTH 642 0
DWIDTH 9 0
BBX 9 14 0 -3
BITMAP
0000
0000
0000
0000
1F00
3000
6000
6000
6000
3000
1F00
0000
0000
0000
ENDCHAR
STARTCHAR d
ENCODING 131
SWIDTH 642 0
DWIDTH 9 0
BBX 9 14 0 -3
BITMAP
0000
0300
0300
0300
1F00
3300
6300
6300
6300
3300
1F00
0000
0000
0000
ENDCHAR
STARTCHAR e
ENCODING 132
SWIDTH 642 0
DWIDTH 9 0
BBX 9 14 0 -3
BITMAP
0000
0000
0000
0000
3E00
6300
6300
7F00
6000
6000
3F00
0000
0000
0000
ENDCHAR
STARTCHAR f
ENCODING 133
SWIDTH 642 0
DWIDTH 9 0
BBX 9 14 0 -3
BITMAP
0000
0F00
1800
1800
7E00
1800
1800
1800
1800
1800
1800
0000
0000
0000
ENDCHAR
STARTCHAR g
ENCODING 134
SWIDTH 642 0
DWIDTH 9 0
BBX 9 14 0 -3
BITMAP
0000
0000
0000
0000
1F00
3180
6180
6180
3380
1F80
0180
3180
1F00
0000
ENDCHAR
STARTCHAR h
ENCODING 135
SWIDTH 642 0
DWIDTH 9 0
BBX 9 14 0 -3
BITMAP
0000
6000
6000
6000
7E00
7300
6300
6300
6300
6300
6300
0000
0000
0000
ENDCHAR
STARTCHAR i
ENCODING 136
SWIDTH 642 0
DWIDTH 9 0
BBX 9 14 0 -3
BITMAP
0000
0C00
0000
0000
0C00
0C00
0C00
0C00
0C00
0C00
0C00
0000
0000
0000
ENDCHAR
STARTCHAR j
ENCODING 137
SWIDTH 642 0
DWIDTH 9 0
BBX 9 14 0 -3
BITMAP
0000
0300
0000
0000
0300
0300
0300
0300
0300
0300
0300
3300
1E00
0000
ENDCHAR
STARTCHAR k
ENCODING 138
SWIDTH 642 0
DWIDTH 9 0
BBX 9 14 0 -3
BITMAP
0000
3000
3000
3000
3300
3600
3C00
3800
3C00
3600
3300
0000
0000
0000
ENDCHAR
STARTCHAR l
ENCODING 139
SWIDTH 642 0
DWIDTH 9 0
BBX 9 14 0 -3
BITMAP
0000
0C00
0C00
0C00
0C00
0C00
0C00
0C00
0C00
0C00
0E00
0000
0000
0000
ENDCHAR
STARTCHAR m
ENCODING 140
SWIDTH 642 0
DWIDTH 9 0
BBX 9 14 0 -3
BITMAP
0000
0000
0000
0000
3F00
6D80
6D80
6D80
6D80
6D80
6D80
0000
0000
0000
ENDCHAR
STARTCHAR n
ENCODING 141
SWIDTH 642 0
DWIDTH 9 0
BBX 9 14 0 -3
BITMAP
0000
0000
0000
0000
7F00
3180
3180
3180
3180
3180
3180
0000
0000
0000
ENDCHAR
STARTCHAR o
ENCODING 142
SWIDTH 642 0
DWIDTH 9 0
BBX 9 14 0 -3
BITMAP
0000
0000
0000
0000
3E00
6300
6300
6300
6300
6300
3E00
0000
0000
0000
ENDCHAR
STARTCHAR p
ENCODING 143
SWIDTH 642 0
DWIDTH 9 0
BBX 9 14 0 -3
BITMAP
0000
0000
0000
0000
7C00
6600
6300
6300
6300
6600
7C00
6000
6000
6000
ENDCHAR
STARTCHAR q
ENCODING 144
SWIDTH 642 0
DWIDTH 9 0
BBX 9 14 0 -3
BITMAP
0000
0000
0000
0000
1F00
3300
6300
6300
3300
1F00
0300
0300
0380
0000
ENDCHAR
STARTCHAR r
ENCODING 145
SWIDTH 642 0
DWIDTH 9 0
BBX 9 14 0 -3
BITMAP
0000
0000
0000
0000
6F00
3980
3000
3000
3000
3000
3000
0000
0000
0000
ENDCHAR
STARTCHAR s
ENCODING 146
SWIDTH 642 0
DWIDTH 9 0
BBX 9 14 0 -3
BITMAP
0000
0000
0000
0000
3E00
6300
3000
1C00
0600
6300
3E00
0000
0000
0000
ENDCHAR
STARTCHAR t
ENCODING 147
SWIDTH 642 0
DWIDTH 9 0
BBX 9 14 0 -3
BITMAP
0000
0C00
0C00
0C00
3F00
0C00
0C00
0C00
0C00
0C00
0C00
0000
0000
0000
ENDCHAR
STARTCHAR u
ENCODING 148
SWIDTH 642 0
DWIDTH 9 0
BBX 9 14 0 -3
BITMAP
0000
0000
0000
0000
6300
6300
6300
6300
6300
6300
3F80
0000
0000
0000
ENDCHAR
STARTCHAR v
ENCODING 149
SWIDTH 642 0
DWIDTH 9 0
BBX 9 14 0 -3
BITMAP
0000
0000
0000
0000
6180
6180
3300
3300
1E00
1E00
0C00
0000
0000
0000
ENDCHAR
STARTCHAR w
ENCODING 150
SWIDTH 642 0
DWIDTH 9 0
BBX 9 14 0 -3
BITMAP
0000
0000
0000
0000
6180
6180
6180
6D80
6D80
7F80
3300
0000
0000
0000
ENDCHAR
STARTCHAR x
ENCODING 151
SWIDTH 642 0
DWIDTH 9 0
BBX 9 14 0 -3
BITMAP
0000
0000
0000
0000
6180
3300
1E00
0C00
1E00
3300
6180
0000
0000
0000
ENDCHAR
STARTCHAR y
ENCODING 152
SWIDTH 642 0
DWIDTH 9 0
BBX 9 14 0 -3
BITMAP
0000
0000
0000
0000
6300
6300
6300
6300
3300
1E00
0C00
1800
3000
6000
ENDCHAR
STARTCHAR z
ENCODING 153
SWIDTH 642 0
DWIDTH 9 0
BBX 9 14 0 -3
BITMAP
0000
0000
0000
0000
7F80
0300
0600
0C00
1800
3000
7F80
0000
0000
0000
ENDCHAR
STARTCHAR ae
ENCODING 154
SWIDTH 642 0
DWIDTH 9 0
BBX 9 14 0 -3
BITMAP
0000
0000
0000
0000
7F00
0D80
1D80
3F80
6C00
6C00
3F80
0000
0000
0000
ENDCHAR
STARTCHAR oslash
ENCODING 155
SWIDTH 642 0
DWIDTH 9 0
BBX 9 14 0 -3
BITMAP
0000
0000
0000
0000
1F80
3300
3700
3F00
3B00
3300
7E00
0000
0000
0000
ENDCHAR
STARTCHAR aring
ENCODING 156
SWIDTH 642 0
DWIDTH 9 0
BBX 9 14 0 -3
BITMAP
0000
1E00
1E00
0000
3E00
0300
0300
3F00
6300
6300
3F80
0000
0000
0000
ENDCHAR
STARTCHAR division
ENCODING 157
SWIDTH 642 0
DWIDTH 9 0
BBX 9 14 0 -3
BITMAP
0000
0000
0000
1C00
1C00
0000
7F00
0000
1C00
1C00
0000
0000
0000
0000
ENDCHAR
STARTCHAR fm
ENCODING 158
SWIDTH 642 0
DWIDTH 9 0
BBX 9 14 0 -3
BITMAP
0000
7F80
7F80
0000
0E00
0E00
0000
0000
0E00
0E00
1C00
3800
0000
0000
ENDCHAR
STARTCHAR dup
ENCODING 159
SWIDTH 642 0
DWIDTH 9 0
BBX 9 14 0 -3
BITMAP
0000
7F80
7F80
0000
0C00
6D80
3F00
1E00
3F00
6D80
0C00
0000
0000
0000
ENDCHAR
STARTCHAR A
ENCODING 160
SWIDTH 642 0
DWIDTH 9 0
BBX 9 14 0 -3
BITMAP
0000
0000
0C00
1E00
3300
6180
6180
7F80
6180
6180
6180
0000
0000
0000
ENDCHAR
STARTCHAR B
ENCODING 161
SWIDTH 642 0
DWIDTH 9 0
BBX 9 14 0 -3
BITMAP
0000
0000
7E00
3300
3180
3300
3E00
3300
3180
3300
7E00
0000
0000
0000
ENDCHAR
STARTCHAR C
ENCODING 162
SWIDTH 642 0
DWIDTH 9 0
BBX 9 14 0 -3
BITMAP
0000
0000
0F00
1980
3000
6000
6000
6000
3000
1980
0F00
0000
0000
0000
ENDCHAR
STARTCHAR D
ENCODING 163
SWIDTH 642 0
DWIDTH 9 0
BBX 9 14 0 -3
BITMAP
0000
0000
7E00
3300
3180
3180
3180
3180
3180
3300
7E00
0000
0000
0000
ENDCHAR
STARTCHAR E
ENCODING 164
SWIDTH 642 0
DWIDTH 9 0
BBX 9 14 0 -3
BITMAP
0000
0000
7F80
6000
6000
6000
7E00
6000
6000
6000
7F80
0000
0000
0000
ENDCHAR
STARTCHAR F
ENCODING 165
SWIDTH 642 0
DWIDTH 9 0
BBX 9 14 0 -3
BITMAP
0000
0000
7F80
6000
6000
6000
7F00
6000
6000
6000
6000
0000
0000
0000
ENDCHAR
STARTCHAR G
ENCODING 166
SWIDTH 642 0
DWIDTH 9 0
BBX 9 14 0 -3
BITMAP
0000
0000
1E00
3300
6000
6000
6000
6F80
6300
3300
1F00
0000
0000
0000
ENDCHAR
STARTCHAR H
ENCODING 167
SWIDTH 642 0
DWIDTH 9 0
BBX 9 14 0 -3
BITMAP
0000
0000
6180
6180
6180
6180
7F80
6180
6180
6180
6180
0000
0000
0000
ENDCHAR
STARTCHAR I
ENCODING 168
SWIDTH 642 0
DWIDTH 9 0
BBX 9 14 0 -3
BITMAP
0000
0000
1E00
0C00
0C00
0C00
0C00
0C00
0C00
0C00
1E00
0000
0000
0000
ENDCHAR
STARTCHAR J
ENCODING 169
SWIDTH 642 0
DWIDTH 9 0
BBX 9 14 0 -3
BITMAP
0000
0000
0F00
0600
0600
0600
0600
0600
6600
6600
3C00
0000
0000
0000
ENDCHAR
STARTCHAR K
ENCODING 170
SWIDTH 642 0
DWIDTH 9 0
BBX 9 14 0 -3
BITMAP
0000
0000
6180
6300
6600
6C00
7800
7C00
6600
6300
6180
0000
0000
0000
ENDCHAR
STARTCHAR L
ENCODING 171
SWIDTH 642 0
DWIDTH 9 0
BBX 9 14 0 -3
BITMAP
0000
0000
6000
6000
6000
6000
6000
6000
6000
6000
7F80
0000
0000
0000
ENDCHAR
STARTCHAR M
ENCODING 172
SWIDTH 642 0
DWIDTH 9 0
BBX 9 14 0 -3
BITMAP
0000
0000
6180
7380
7F80
6D80
6D80
6180
6180
6180
6180
0000
0000
0000
ENDCHAR
STARTCHAR N
ENCODING 173
SWIDTH 642 0
DWIDTH 9 0
BBX 9 14 0 -3
BITMAP
0000
0000
6180
7180
7980
6D80
6780
6380
6180
6180
6180
0000
0000
0000
ENDCHAR
STARTCHAR O
ENCODING 174
SWIDTH 642 0
DWIDTH 9 0
BBX 9 14 0 -3
BITMAP
0000
0000
3F00
6180
6180
6180
6180
6180
6180
6180
3F00
0000
0000
0000
ENDCHAR
STARTCHAR P
ENCODING 175
SWIDTH 642 0
DWIDTH 9 0
BBX 9 14 0 -3
BITMAP
0000
0000
7E00
6300
6180
6180
6300
7E00
6000
6000
6000
0000
0000
0000
ENDCHAR
STARTCHAR Q
ENCODING 176
SWIDTH 642 0
DWIDTH 9 0
BBX 9 14 0 -3
BITMAP
0000
0000
1E00
3300
6180
6180
6180
6180
6D80
3F00
1E00
0300
0180
0000
ENDCHAR
STARTCHAR R
ENCODING 177
SWIDTH 642 0
DWIDTH 9 0
BBX 9 14 0 -3
BITMAP
0000
0000
7F00
6180
6180
6180
7F00
6C00
6600
6300
6180
0000
0000
0000
ENDCHAR
STARTCHAR S
ENCODING 178
SWIDTH 642 0
DWIDTH 9 0
BBX 9 14 0 -3
BITMAP
0000
0000
3F00
6180
6000
3800
0C00
0700
0180
6180
3F00
0000
0000
0000
ENDCHAR
STARTCHAR T
ENCODING 179
SWIDTH 642 0
DWIDTH 9 0
BBX 9 14 0 -3
BITMAP
0000
0000
7F80
0C00
0C00
0C00
0C00
0C00
0C00
0C00
0C00
0000
0000
0000
ENDCHAR
STARTCHAR U
ENCODING 180
SWIDTH 642 0
DWIDTH 9 0
BBX 9 14 0 -3
BITMAP
0000
0000
6180
6180
6180
6180
6180
6180
6180
6180
3F00
0000
0000
0000
ENDCHAR
STARTCHAR V
ENCODING 181
SWIDTH 642 0
DWIDTH 9 0
BBX 9 14 0 -3
BITMAP
0000
0000
6180
6180
3300
3300
3300
1E00
1E00
0C00
0C00
0000
0000
0000
ENDCHAR
STARTCHAR W
ENCODING 182
SWIDTH 642 0
DWIDTH 9 0
BBX 9 14 0 -3
BITMAP
0000
0000
6180
6180
6180
6180
6D80
6D80
6D80
7F80
3300
0000
0000
0000
ENDCHAR
STARTCHAR X
ENCODING 183
SWIDTH 642 0
DWIDTH 9 0
BBX 9 14 0 -3
BITMAP
0000
0000
6180
6180
3300
1E00
0C00
1E00
3300
6180
6180
0000
0000
0000
ENDCHAR
STARTCHAR Y
ENCODING 184
SWIDTH 642 0
DWIDTH 9 0
BBX 9 14 0 -3
BITMAP
0000
0000
6180
3300
1E00
0C00
0C00
0C00
0C00
0C00
0C00
0000
0000
0000
ENDCHAR
STARTCHAR Z
ENCODING 185
SWIDTH 642 0
DWIDTH 9 0
BBX 9 14 0 -3
BITMAP
0000
0000
7F80
0180
0300
0600
0C00
1800
3000
6000
7F80
0000
0000
0000
ENDCHAR
STARTCHAR AE
ENCODING 186
SWIDTH 642 0
DWIDTH 9 0
BBX 9 14 0 -3
BITMAP
0000
0000
0F80
1E00
3600
6600
6780
7E00
6600
6600
6780
0000
0000
0000
ENDCHAR
STARTCHAR Ooblique
ENCODING 187
SWIDTH 642 0
DWIDTH 9 0
BBX 9 14 0 -3
BITMAP
0000
0000
3F00
6180
6380
6780
6D80
7980
7180
6180
3F00
0000
0000
0000
ENDCHAR
STARTCHAR Aring
ENCODING 188
SWIDTH 642 0
DWIDTH 9 0
BBX 9 14 0 -3
BITMAP
1E00
1E00
0C00
1E00
3300
6180
6180
7F80
6180
6180
6180
0000
0000
0000
ENDCHAR
STARTCHAR Ccedilla
ENCODING 189
SWIDTH 642 0
DWIDTH 9 0
BBX 9 14 0 -3
BITMAP
0000
0000
0F00
1980
3000
6000
6000
6000
3000
1980
0F00
0600
3E00
0000
ENDCHAR
STARTCHAR semicolon
ENCODING 190
SWIDTH 642 0
DWIDTH 9 0
BBX 9 14 0 -3
BITMAP
0000
0000
0000
0000
0000
0E00
0E00
0000
0000
0E00
0E00
1C00
3800
0000
ENDCHAR
STARTCHAR asterisk
ENCODING 191
SWIDTH 642 0
DWIDTH 9 0
BBX 9 14 0 -3
BITMAP
0000
0000
0C00
6D80
3F00
1E00
3F00
6D80
0C00
0000
0000
0000
0000
0000
ENDCHAR
STARTCHAR c0
ENCODING 192
SWIDTH 642 0
DWIDTH 9 0
BBX 9 14 0 -3
BITMAP
0000
0000
0000
0000
0000
0000
0000
0000
0000
0000
0000
0000
0000
0000
ENDCHAR
STARTCHAR c1
ENCODING 193
SWIDTH 642 0
DWIDTH 9 0
BBX 9 14 0 -3
BITMAP
0000
0000
0000
0000
0000
0000
0000
0000
0000
0000
0000
0000
0000
0000
ENDCHAR
STARTCHAR c2
ENCODING 194
SWIDTH 642 0
DWIDTH 9 0
BBX 9 14 0 -3
BITMAP
0000
0000
0000
0000
0000
0000
0000
0000
0000
0000
0000
0000
0000
0000
ENDCHAR
STARTCHAR c3
ENCODING 195
SWIDTH 642 0
DWIDTH 9 0
BBX 9 14 0 -3
BITMAP
0000
0000
0000
0000
0000
0000
0000
0000
0000
0000
0000
0000
0000
0000
ENDCHAR
STARTCHAR c4
ENCODING 196
SWIDTH 642 0
DWIDTH 9 0
BBX 9 14 0 -3
BITMAP
0000
0000
0000
0000
0000
0000
0000
0000
0000
0000
0000
0000
0000
0000
ENDCHAR
STARTCHAR c5
ENCODING 197
SWIDTH 642 0
DWIDTH 9 0
BBX 9 14 0 -3
BITMAP
0000
0000
0000
0000
0000
0000
0000
0000
0000
0000
0000
0000
0000
0000
ENDCHAR
STARTCHAR c6
ENCODING 198
SWIDTH 642 0
DWIDTH 9 0
BBX 9 14 0 -3
BITMAP
0000
0000
0000
0000
0000
0000
0000
0000
0000
0000
0000
0000
0000
0000
ENDCHAR
STARTCHAR c7
ENCODING 199
SWIDTH 642 0
DWIDTH 9 0
BBX 9 14 0 -3
BITMAP
0000
0000
0000
0000
0000
0000
0000
0000
0000
0000
0000
0000
0000
0000
ENDCHAR
STARTCHAR c8
ENCODING 200
SWIDTH 642 0
DWIDTH 9 0
BBX 9 14 0 -3
BITMAP
0000
0000
0000
0000
0000
0000
0000
0000
0000
0000
0000
0000
0000
0000
ENDCHAR
STARTCHAR c9
ENCODING 201
SWIDTH 642 0
DWIDTH 9 0
BBX 9 14 0 -3
BITMAP
0000
0000
0000
0000
0000
0000
0000
0000
0000
0000
0000
0000
0000
0000
ENDCHAR
STARTCHAR ca
ENCODING 202
SWIDTH 642 0
DWIDTH 9 0
BBX 9 14 0 -3
BITMAP
0000
0000
0000
0000
0000
0000
0000
0000
0000
0000
0000
0000
0000
0000
ENDCHAR
STARTCHAR cb
ENCODING 203
SWIDTH 642 0
DWIDTH 9 0
BBX 9 14 0 -3
BITMAP
0000
0000
0000
0000
0000
0000
0000
0000
0000
0000
0000
0000
0000
0000
ENDCHAR
STARTCHAR cc
ENCODING 204
SWIDTH 642 0
DWIDTH 9 0
BBX 9 14 0 -3
BITMAP
0000
0000
0000
0000
0000
0000
0000
0000
0000
0000
0000
0000
0000
0000
ENDCHAR
STARTCHAR cd
ENCODING 205
SWIDTH 642 0
DWIDTH 9 0
BBX 9 14 0 -3
BITMAP
0000
0000
0000
0000
0000
0000
0000
0000
0000
0000
0000
0000
0000
0000
ENDCHAR
STARTCHAR ce
ENCODING 206
SWIDTH 642 0
DWIDTH 9 0
BBX 9 14 0 -3
BITMAP
0000
0000
0000
0000
0000
0000
0000
0000
0000
0000
0000
0000
0000
0000
ENDCHAR
STARTCHAR cf
ENCODING 207
SWIDTH 642 0
DWIDTH 9 0
BBX 9 14 0 -3
BITMAP
0000
0000
0000
0000
0000
0000
0000
0000
0000
0000
0000
0000
0000
0000
ENDCHAR
STARTCHAR copyright
ENCODING 208
SWIDTH 642 0
DWIDTH 9 0
BBX 9 14 0 -3
BITMAP
0000
1C00
2200
4D00
5100
5100
4D00
2200
1C00
0000
0000
0000
0000
0000
ENDCHAR
STARTCHAR registered
ENCODING 209
SWIDTH 642 0
DWIDTH 9 0
BBX 9 14 0 -3
BITMAP
0000
1C00
2200
5900
5500
5900
5500
2200
1C00
0000
0000
0000
0000
0000
ENDCHAR
STARTCHAR boxA
ENCODING 210
SWIDTH 642 0
DWIDTH 9 0
BBX 9 14 0 -3
BITMAP
2000
5000
8800
8800
F800
8800
8800
0000
FF80
8080
8080
FF80
0000
0000
ENDCHAR
STARTCHAR insert
ENCODING 211
SWIDTH 642 0
DWIDTH 9 0
BBX 9 14 0 -3
BITMAP
0000
0000
0000
0000
0800
1C00
3E00
7700
E380
C180
8080
0000
0000
0000
ENDCHAR
STARTCHAR boxB
ENCODING 212
SWIDTH 642 0
DWIDTH 9 0
BBX 9 14 0 -3
BITMAP
0F00
0480
0480
0700
0480
0480
0F00
0000
FF80
8080
8080
FF80
0000
0000
ENDCHAR
STARTCHAR box6
ENCODING 213
SWIDTH 642 0
DWIDTH 9 0
BBX 9 14 0 -3
BITMAP
0000
0000
FF80
8080
9080
A080
A080
AC80
B280
A280
9C80
8080
FF80
0000
ENDCHAR
STARTCHAR plusminus
ENCODING 214
SWIDTH 642 0
DWIDTH 9 0
BBX 9 14 0 -3
BITMAP
0000
0000
0C00
0C00
0C00
7F80
0C00
0C00
0C00
0000
7F80
0000
0000
0000
ENDCHAR
STARTCHAR ETH
ENCODING 215
SWIDTH 642 0
DWIDTH 9 0
BBX 9 14 0 -3
BITMAP
0000
0000
7E00
3300
3180
3180
7D80
3180
3180
3300
7E00
0000
0000
0000
ENDCHAR
STARTCHAR rightarrow
ENCODING 216
SWIDTH 642 0
DWIDTH 9 0
BBX 9 14 0 -3
BITMAP
0000
0000
0000
0000
0400
0600
FF00
0600
0400
0000
0000
0000
0000
0000
ENDCHAR
STARTCHAR THORN
ENCODING 217
SWIDTH 642 0
DWIDTH 9 0
BBX 9 14 0 -3
BITMAP
0000
0000
6000
6000
7E00
6300
6300
6300
7E00
6000
6000
0000
0000
0000
ENDCHAR
STARTCHAR upshift
ENCODING 218
SWIDTH 642 0
DWIDTH 9 0
BBX 9 14 0 -3
BITMAP
0000
0800
1400
2200
4100
7700
1400
1400
1400
1400
1400
1C00
0000
0000
ENDCHAR
STARTCHAR human
ENCODING 219
SWIDTH 642 0
DWIDTH 9 0
BBX 9 14 0 -3
BITMAP
0000
1C00
1400
1C00
0800
7F00
0800
0800
1400
2200
4100
0000
0000
0000
ENDCHAR
STARTCHAR underB
ENCODING 220
SWIDTH 642 0
DWIDTH 9 0
BBX 9 14 0 -3
BITMAP
3C00
1200
1200
1C00
1200
1200
3C00
0000
FF80
0000
0000
0000
0000
0000
ENDCHAR
STARTCHAR downshift
ENCODING 221
SWIDTH 642 0
DWIDTH 9 0
BBX 9 14 0 -3
BITMAP
0000
1C00
1400
1400
1400
1400
1400
7700
4100
2200
1400
0800
0000
0000
ENDCHAR
STARTCHAR boxquestion
ENCODING 222
SWIDTH 642 0
DWIDTH 9 0
BBX 9 14 0 -3
BITMAP
FF80
8080
9C80
A280
A280
8280
8480
8880
8880
8080
8880
8080
FF80
0000
ENDCHAR
STARTCHAR boxsolid
ENCODING 223
SWIDTH 642 0
DWIDTH 9 0
BBX 9 14 0 -3
BITMAP
FF80
FF80
FF80
FF80
FF80
FF80
FF80
FF80
FF80
FF80
FF80
FF80
FF80
0000
ENDCHAR
STARTCHAR e0
ENCODING 224
SWIDTH 642 0
DWIDTH 9 0
BBX 9 14 0 -3
BITMAP
0000
0000
0000
0000
0000
0000
0000
0000
0000
0000
0000
0000
0000
0000
ENDCHAR
STARTCHAR e1
ENCODING 225
SWIDTH 642 0
DWIDTH 9 0
BBX 9 14 0 -3
BITMAP
0000
0000
0000
0000
0000
0000
0000
0000
0000
0000
0000
0000
0000
0000
ENDCHAR
STARTCHAR e2
ENCODING 226
SWIDTH 642 0
DWIDTH 9 0
BBX 9 14 0 -3
BITMAP
0000
0000
0000
0000
0000
0000
0000
0000
0000
0000
0000
0000
0000
0000
ENDCHAR
STARTCHAR e3
ENCODING 227
SWIDTH 642 0
DWIDTH 9 0
BBX 9 14 0 -3
BITMAP
0000
0000
0000
0000
0000
0000
0000
0000
0000
0000
0000
0000
0000
0000
ENDCHAR
STARTCHAR e4
ENCODING 228
SWIDTH 642 0
DWIDTH 9 0
BBX 9 14 0 -3
BITMAP
0000
0000
0000
0000
0000
0000
0000
0000
0000
0000
0000
0000
0000
0000
ENDCHAR
STARTCHAR e5
ENCODING 229
SWIDTH 642 0
DWIDTH 9 0
BBX 9 14 0 -3
BITMAP
0000
0000
0000
0000
0000
0000
0000
0000
0000
0000
0000
0000
0000
0000
ENDCHAR
STARTCHAR e6
ENCODING 230
SWIDTH 642 0
DWIDTH 9 0
BBX 9 14 0 -3
BITMAP
0000
0000
0000
0000
0000
0000
0000
0000
0000
0000
0000
0000
0000
0000
ENDCHAR
STARTCHAR e7
ENCODING 231
SWIDTH 642 0
DWIDTH 9 0
BBX 9 14 0 -3
BITMAP
0000
0000
0000
0000
0000
0000
0000
0000
0000
0000
0000
0000
0000
0000
ENDCHAR
STARTCHAR e8
ENCODING 232
SWIDTH 642 0
DWIDTH 9 0
BBX 9 14 0 -3
BITMAP
0000
0000
0000
0000
0000
0000
0000
0000
0000
0000
0000
0000
0000
0000
ENDCHAR
STARTCHAR e9
ENCODING 233
SWIDTH 642 0
DWIDTH 9 0
BBX 9 14 0 -3
BITMAP
0000
0000
0000
0000
0000
0000
0000
0000
0000
0000
0000
0000
0000
0000
ENDCHAR
STARTCHAR ea
ENCODING 234
SWIDTH 642 0
DWIDTH 9 0
BBX 9 14 0 -3
BITMAP
0000
0000
0000
0000
0000
0000
0000
0000
0000
0000
0000
0000
0000
0000
ENDCHAR
STARTCHAR eb
ENCODING 235
SWIDTH 642 0
DWIDTH 9 0
BBX 9 14 0 -3
BITMAP
0000
0000
0000
0000
0000
0000
0000
0000
0000
0000
0000
0000
0000
0000
ENDCHAR
STARTCHAR ec
ENCODING 236
SWIDTH 642 0
DWIDTH 9 0
BBX 9 14 0 -3
BITMAP
0000
0000
0000
0000
0000
0000
0000
0000
0000
0000
0000
0000
0000
0000
ENDCHAR
STARTCHAR ed
ENCODING 237
SWIDTH 642 0
DWIDTH 9 0
BBX 9 14 0 -3
BITMAP
0000
0000
0000
0000
0000
0000
0000
0000
0000
0000
0000
0000
0000
0000
ENDCHAR
STARTCHAR ee
ENCODING 238
SWIDTH 642 0
DWIDTH 9 0
BBX 9 14 0 -3
BITMAP
0000
0000
0000
0000
0000
0000
0000
0000
0000
0000
0000
0000
0000
0000
ENDCHAR
STARTCHAR ef
ENCODING 239
SWIDTH 642 0
DWIDTH 9 0
BBX 9 14 0 -3
BITMAP
0000
0000
0000
0000
0000
0000
0000
0000
0000
0000
0000
0000
0000
0000
ENDCHAR
STARTCHAR badcommhi
ENCODING 240
SWIDTH 642 0
DWIDTH 9 0
BBX 9 14 0 -3
BITMAP
0000
8000
C000
E000
7000
3800
FF80
0E00
0700
0380
0180
0080
0000
0000
ENDCHAR
STARTCHAR commhi
ENCODING 241
SWIDTH 642 0
DWIDTH 9 0
BBX 9 14 0 -3
BITMAP
0000
0000
0000
0000
0000
0000
FF80
0000
0000
0000
0000
0000
0000
0000
ENDCHAR
STARTCHAR commjag
ENCODING 242
SWIDTH 642 0
DWIDTH 9 0
BBX 9 14 0 -3
BITMAP
0000
0000
0000
0000
0000
0000
FC00
0800
1000
2000
7F80
0000
0000
0000
ENDCHAR
STARTCHAR commlo
ENCODING 243
SWIDTH 642 0
DWIDTH 9 0
BBX 9 14 0 -3
BITMAP
0000
0000
0000
0000
0000
0000
0000
0000
0000
0000
FF80
0000
0000
0000
ENDCHAR
STARTCHAR clockleft
ENCODING 244
SWIDTH 642 0
DWIDTH 9 0
BBX 9 14 0 -3
BITMAP
0000
0100
0800
0000
2000
0000
0080
4100
0100
0100
2100
0100
0800
0100
ENDCHAR
STARTCHAR clockright
ENCODING 245
SWIDTH 642 0
DWIDTH 9 0
BBX 9 14 0 -3
BITMAP
0000
2000
0000
2800
4000
8000
0400
0000
0000
0800
0000
2000
0000
0000
ENDCHAR
STARTCHAR lock
ENCODING 246
SWIDTH 642 0
DWIDTH 9 0
BBX 9 14 0 -3
BITMAP
8080
C180
E380
F780
7F00
3E00
3E00
7F00
F780
E380
C180
8080
0000
0000
ENDCHAR
STARTCHAR eth
ENCODING 247
SWIDTH 642 0
DWIDTH 9 0
BBX 9 14 0 -3
BITMAP
3C00
1800
3C00
0600
3F00
6300
6300
6300
6300
6300
3E00
0000
0000
0000
ENDCHAR
STARTCHAR leftarrow
ENCODING 248
SWIDTH 642 0
DWIDTH 9 0
BBX 9 14 0 -3
BITMAP
0000
0000
0000
0000
1000
3000
7F80
3000
1000
0000
0000
0000
0000
0000
ENDCHAR
STARTCHAR thorn
ENCODING 249
SWIDTH 642 0
DWIDTH 9 0
BBX 9 14 0 -3
BITMAP
0000
0000
6000
6000
7E00
7300
6300
6300
6300
7300
7E00
6000
6000
0000
ENDCHAR
STARTCHAR keyleft
ENCODING 250
SWIDTH 642 0
DWIDTH 9 0
BBX 9 14 0 -3
BITMAP
0000
0000
0000
0E00
1100
1180
1100
0E00
0000
0000
0000
0000
0000
0000
ENDCHAR
STARTCHAR keyright
ENCODING 251
SWIDTH 642 0
DWIDTH 9 0
BBX 9 14 0 -3
BITMAP
0000
0000
0000
0000
0000
FF80
1D80
1D80
0180
0000
0000
0000
0000
0000
ENDCHAR
STARTCHAR box4
ENCODING 252
SWIDTH 642 0
DWIDTH 9 0
BBX 9 14 0 -3
BITMAP
0000
0000
FF80
8080
8480
8C80
9480
A480
BE80
8480
8480
8080
FF80
0000
ENDCHAR
STARTCHAR underA
ENCODING 253
SWIDTH 642 0
DWIDTH 9 0
BBX 9 14 0 -3
BITMAP
0800
1400
2200
2200
3E00
2200
2200
0000
FF80
0000
0000
0000
0000
0000
ENDCHAR
STARTCHAR magcard
ENCODING 254
SWIDTH 642 0
DWIDTH 9 0
BBX 9 14 0 -3
BITMAP
0000
0000
0000
FF80
8080
8080
8080
FF80
8080
FF80
0000
0000
0000
0000
ENDCHAR
STARTCHAR boxhuman
ENCODING 255
SWIDTH 642 0
DWIDTH 9 0
BBX 9 14 0 -3
BITMAP
FF80
8080
9C80
9480
9C80
8880
FF80
8880
8880
9480
A280
C180
FF80
0000
ENDCHAR
STARTCHAR apl_Aunderbar
ENCODING 257
SWIDTH 642 0
DWIDTH 9 0
BBX 9 14 0 -3
BITMAP
0000
0000
0C00
1E00
3300
6180
6180
7F80
6180
6180
6180
0000
7F80
0000
ENDCHAR
STARTCHAR apl_upcarettilde
ENCODING 263
SWIDTH 642 0
DWIDTH 9 0
BBX 9 14 0 -3
BITMAP
3800
6D80
0700
0000
0C00
1E00
3300
6180
0000
0000
0000
0000
0000
0000
ENDCHAR
STARTCHAR apl_del
ENCODING 266
SWIDTH 642 0
DWIDTH 9 0
BBX 9 14 0 -3
BITMAP
0000
0000
0000
7F80
6180
3300
3300
1E00
1E00
0C00
0C00
0000
0000
0000
ENDCHAR
STARTCHAR apl_delta
ENCODING 267
SWIDTH 642 0
DWIDTH 9 0
BBX 9 14 0 -3
BITMAP
0000
0000
0000
0C00
0C00
1E00
1E00
3300
3300
6180
7F80
0000
0000
0000
ENDCHAR
STARTCHAR apl_braceright
ENCODING 270
SWIDTH 642 0
DWIDTH 9 0
BBX 9 14 0 -3
BITMAP
0000
3800
0C00
0C00
0C00
0C00
0600
0C00
0C00
0C00
0C00
3800
0000
0000
ENDCHAR
STARTCHAR apl_braceleft
ENCODING 271
SWIDTH 642 0
DWIDTH 9 0
BBX 9 14 0 -3
BITMAP
0000
0E00
1800
1800
1800
1800
3000
1800
1800
1800
1800
0E00
0000
0000
ENDCHAR
STARTCHAR apl_space
ENCODING 272
SWIDTH 642 0
DWIDTH 9 0
BBX 9 14 0 -3
BITMAP
0000
0000
0000
0000
0000
0000
0000
0000
0000
0000
0000
0000
0000
0000
ENDCHAR
STARTCHAR apl_equalunderbar
ENCODING 277
SWIDTH 642 0
DWIDTH 9 0
BBX 9 14 0 -3
BITMAP
0000
0000
0000
0000
7F80
0000
7F80
0000
7F80
0000
0000
0000
0000
0000
ENDCHAR
STARTCHAR apl_epsilon
ENCODING 284
SWIDTH 642 0
DWIDTH 9 0
BBX 9 14 0 -3
BITMAP
0000
0000
0000
0000
1F00
3000
6000
7E00
6000
3000
1F00
0000
0000
0000
ENDCHAR
STARTCHAR apl_iota
ENCODING 285
SWIDTH 642 0
DWIDTH 9 0
BBX 9 14 0 -3
BITMAP
0000
0000
0000
0000
3000
3000
3000
3000
3000
3600
1C00
0000
0000
0000
ENDCHAR
STARTCHAR apl_multiply
ENCODING 286
SWIDTH 642 0
DWIDTH 9 0
BBX 9 14 0 -3
BITMAP
0000
0000
0000
0000
3300
1E00
0C00
1E00
3300
0000
0000
0000
0000
0000
ENDCHAR
STARTCHAR apl_leftarrow
ENCODING 287
SWIDTH 642 0
DWIDTH 9 0
BBX 9 14 0 -3
BITMAP
0000
0000
0000
0000
1800
3800
7F80
3800
1800
0000
0000
0000
0000
0000
ENDCHAR
STARTCHAR apl_super0
ENCODING 288
SWIDTH 642 0
DWIDTH 9 0
BBX 9 14 0 -3
BITMAP
0000
1C00
3600
3600
3600
1C00
0000
0000
0000
0000
0000
0000
0000
0000
ENDCHAR
STARTCHAR apl_super1
ENCODING 289
SWIDTH 642 0
DWIDTH 9 0
BBX 9 14 0 -3
BITMAP
0000
0C00
1C00
0C00
0C00
1E00
0000
0000
0000
0000
0000
0000
0000
0000
ENDCHAR
STARTCHAR apl_super2
ENCODING 290
SWIDTH 642 0
DWIDTH 9 0
BBX 9 14 0 -3
BITMAP
0000
3C00
0600
1C00
3000
3E00
0000
0000
0000
0000
0000
0000
0000
0000
ENDCHAR
STARTCHAR apl_super3
ENCODING 291
SWIDTH 642 0
DWIDTH 9 0
BBX 9 14 0 -3
BITMAP
0000
3C00
0600
1C00
0600
3C00
0000
0000
0000
0000
0000
0000
0000
0000
ENDCHAR
STARTCHAR apl_super4
ENCODING 292
SWIDTH 642 0
DWIDTH 9 0
BBX 9 14 0 -3
BITMAP
0000
0C00
1C00
3C00
3E00
0C00
0000
0000
0000
0000
0000
0000
0000
0000
ENDCHAR
STARTCHAR apl_super5
ENCODING 293
SWIDTH 642 0
DWIDTH 9 0
BBX 9 14 0 -3
BITMAP
0000
3E00
3000
3C00
0600
3C00
0000
0000
0000
0000
0000
0000
0000
0000
ENDCHAR
STARTCHAR apl_super6
ENCODING 294
SWIDTH 642 0
DWIDTH 9 0
BBX 9 14 0 -3
BITMAP
0000
1C00
3000
3C00
3600
1C00
0000
0000
0000
0000
0000
0000
0000
0000
ENDCHAR
STARTCHAR apl_super7
ENCODING 295
SWIDTH 642 0
DWIDTH 9 0
BBX 9 14 0 -3
BITMAP
0000
3E00
0600
0C00
1800
1800
0000
0000
0000
0000
0000
0000
0000
0000
ENDCHAR
STARTCHAR apl_super8
ENCODING 296
SWIDTH 642 0
DWIDTH 9 0
BBX 9 14 0 -3
BITMAP
0000
1C00
3600
1C00
3600
1C00
0000
0000
0000
0000
0000
0000
0000
0000
ENDCHAR
STARTCHAR apl_super9
ENCODING 297
SWIDTH 642 0
DWIDTH 9 0
BBX 9 14 0 -3
BITMAP
0000
1C00
3600
1E00
0600
1C00
0000
0000
0000
0000
0000
0000
0000
0000
ENDCHAR
STARTCHAR apl_Runderbar
ENCODING 298
SWIDTH 642 0
DWIDTH 9 0
BBX 9 14 0 -3
BITMAP
0000
0000
7F00
6180
6180
6180
7F00
6C00
6600
6300
6180
0000
7F80
0000
ENDCHAR
STARTCHAR apl_uptack
ENCODING 311
SWIDTH 642 0
DWIDTH 9 0
BBX 9 14 0 -3
BITMAP
0000
0000
0000
0000
3F00
0C00
0C00
0C00
0C00
0C00
0C00
0000
0000
0000
ENDCHAR
STARTCHAR apl_quad
ENCODING 312
SWIDTH 642 0
DWIDTH 9 0
BBX 9 14 0 -3
BITMAP
7F80
6180
6180
6180
6180
6180
6180
6180
6180
6180
7F80
0000
0000
0000
ENDCHAR
STARTCHAR apl_rho
ENCODING 313
SWIDTH 642 0
DWIDTH 9 0
BBX 9 14 0 -3
BITMAP
0000
0000
0000
0000
1E00
3300
6180
6180
6180
7300
7E00
6000
6000
6000
ENDCHAR
STARTCHAR apl_alpha
ENCODING 314
SWIDTH 642 0
DWIDTH 9 0
BBX 9 14 0 -3
BITMAP
0000
0000
0000
0000
1D80
3780
6300
6300
6300
3780
1D80
0000
0000
0000
ENDCHAR
STARTCHAR apl_degree
ENCODING 315
SWIDTH 642 0
DWIDTH 9 0
BBX 9 14 0 -3
BITMAP
0000
0000
0E00
1B00
1B00
0E00
0000
0000
0000
0000
0000
0000
0000
0000
ENDCHAR
STARTCHAR apl_bracketright
ENCODING 316
SWIDTH 642 0
DWIDTH 9 0
BBX 9 14 0 -3
BITMAP
0000
1E00
0600
0600
0600
0600
0600
0600
0600
0600
0600
1E00
0000
0000
ENDCHAR
STARTCHAR apl_notequal
ENCODING 318
SWIDTH 642 0
DWIDTH 9 0
BBX 9 14 0 -3
BITMAP
0000
0000
0000
0300
0600
7F00
0C00
1800
7F00
3000
6000
0000
0000
0000
ENDCHAR
STARTCHAR apl_circle
ENCODING 319
SWIDTH 642 0
DWIDTH 9 0
BBX 9 14 0 -3
BITMAP
0000
0000
0000
1E00
3300
6180
6180
6180
3300
1E00
0000
0000
0000
0000
ENDCHAR
STARTCHAR apl_Dunderbar
ENCODING 320
SWIDTH 642 0
DWIDTH 9 0
BBX 9 14 0 -3
BITMAP
0000
0000
7E00
3300
3180
3180
3180
3180
3180
3300
7E00
0000
7F80
0000
ENDCHAR
STARTCHAR apl_Munderbar
ENCODING 321
SWIDTH 642 0
DWIDTH 9 0
BBX 9 14 0 -3
BITMAP
0000
0000
6180
7380
7F80
6D80
6D80
6180
6180
6180
6180
0000
7F80
0000
ENDCHAR
STARTCHAR apl_Qunderbar
ENCODING 322
SWIDTH 642 0
DWIDTH 9 0
BBX 9 14 0 -3
BITMAP
0000
0000
1E00
3300
6180
6180
6180
6180
6D80
3F00
1E00
0300
7F80
0000
ENDCHAR
STARTCHAR apl_circlestile
ENCODING 323
SWIDTH 642 0
DWIDTH 9 0
BBX 9 14 0 -3
BITMAP
0000
0C00
0C00
1E00
3F00
6D80
6D80
6D80
3F00
1E00
0C00
0C00
0000
0000
ENDCHAR
STARTCHAR apl_deltastile
ENCODING 324
SWIDTH 642 0
DWIDTH 9 0
BBX 9 14 0 -3
BITMAP
0C00
0C00
0C00
1E00
1E00
3F00
3F00
6D80
7F80
0C00
0C00
0000
0000
0000
ENDCHAR
STARTCHAR apl_Funderbar
ENCODING 325
SWIDTH 642 0
DWIDTH 9 0
BBX 9 14 0 -3
BITMAP
0000
0000
7F80
6000
6000
6000
7F00
6000
6000
6000
6000
0000
7F80
0000
ENDCHAR
STARTCHAR apl_circleslope
ENCODING 326
SWIDTH 642 0
DWIDTH 9 0
BBX 9 14 0 -3
BITMAP
0000
0000
0000
7E00
3300
7980
6D80
6780
3300
1F80
0000
0000
0000
0000
ENDCHAR
STARTCHAR apl_upshoejot
ENCODING 327
SWIDTH 642 0
DWIDTH 9 0
BBX 9 14 0 -3
BITMAP
0000
0000
0000
0000
1E00
3300
3F00
3F00
3300
3300
0000
0000
0000
0000
ENDCHAR
STARTCHAR apl_bracketleft
ENCODING 328
SWIDTH 642 0
DWIDTH 9 0
BBX 9 14 0 -3
BITMAP
0000
1E00
1800
1800
1800
1800
1800
1800
1800
1800
1800
1E00
0000
0000
ENDCHAR
STARTCHAR apl_upstile
ENCODING 329
SWIDTH 642 0
DWIDTH 9 0
BBX 9 14 0 -3
BITMAP
0000
0000
1E00
1800
1800
1800
1800
1800
1800
1800
1800
0000
0000
0000
ENDCHAR
STARTCHAR apl_Junderbar
ENCODING 330
SWIDTH 642 0
DWIDTH 9 0
BBX 9 14 0 -3
BITMAP
0000
0000
0F00
0600
0600
0600
0600
0600
6600
6600
3C00
0000
7F00
0000
ENDCHAR
STARTCHAR apl_slope
ENCODING 331
SWIDTH 642 0
DWIDTH 9 0
BBX 9 14 0 -3
BITMAP
0000
0000
0000
0000
3000
1800
0C00
0600
0300
0000
0000
0000
0000
0000
ENDCHAR
STARTCHAR apl_divide
ENCODING 332
SWIDTH 642 0
DWIDTH 9 0
BBX 9 14 0 -3
BITMAP
0000
0000
0000
1C00
1C00
0000
7F00
0000
1C00
1C00
0000
0000
0000
0000
ENDCHAR
STARTCHAR apl_delstile
ENCODING 334
SWIDTH 642 0
DWIDTH 9 0
BBX 9 14 0 -3
BITMAP
0C00
0C00
7F80
6D80
3F00
3F00
1E00
1E00
0C00
0C00
0C00
0000
0000
0000
ENDCHAR
STARTCHAR apl_Hunderbar
ENCODING 335
SWIDTH 642 0
DWIDTH 9 0
BBX 9 14 0 -3
BITMAP
0000
0000
6180
6180
6180
6180
7F80
6180
6180
6180
6180
0000
7F80
0000
ENDCHAR
STARTCHAR apl_Cunderbar
ENCODING 336
SWIDTH 642 0
DWIDTH 9 0
BBX 9 14 0 -3
BITMAP
0000
0000
0F00
1980
3000
6000
6000
6000
3000
1980
0F00
0000
7F80
0000
ENDCHAR
STARTCHAR apl_Lunderbar
ENCODING 337
SWIDTH 642 0
DWIDTH 9 0
BBX 9 14 0 -3
BITMAP
0000
0000
6000
6000
6000
6000
6000
6000
6000
6000
7F80
0000
7F80
0000
ENDCHAR
STARTCHAR apl_Punderbar
ENCODING 338
SWIDTH 642 0
DWIDTH 9 0
BBX 9 14 0 -3
BITMAP
0000
0000
7E00
6300
6180
6180
6300
7E00
6000
6000
6000
0000
7F80
0000
ENDCHAR
STARTCHAR apl_squad
ENCODING 339
SWIDTH 642 0
DWIDTH 9 0
BBX 9 14 0 -3
BITMAP
3E00
3600
3600
3600
3600
3600
3600
3600
3600
3600
3E00
0000
0000
0000
ENDCHAR
STARTCHAR apl_overbar
ENCODING 340
SWIDTH 642 0
DWIDTH 9 0
BBX 9 14 0 -3
BITMAP
0000
7F80
0000
0000
0000
0000
0000
0000
0000
0000
0000
0000
0000
0000
ENDCHAR
STARTCHAR apl_Bunderbar
ENCODING 341
SWIDTH 642 0
DWIDTH 9 0
BBX 9 14 0 -3
BITMAP
0000
0000
7E00
3300
3180
3300
3E00
3300
3180
3300
7E00
0000
7F80
0000
ENDCHAR
STARTCHAR apl_Kunderbar
ENCODING 342
SWIDTH 642 0
DWIDTH 9 0
BBX 9 14 0 -3
BITMAP
0000
0000
6180
6300
6600
6C00
7800
7C00
6600
6300
6180
0000
7F80
0000
ENDCHAR
STARTCHAR apl_Ounderbar
ENCODING 343
SWIDTH 642 0
DWIDTH 9 0
BBX 9 14 0 -3
BITMAP
0000
0000
3F00
6180
6180
6180
6180
6180
6180
6180
3F00
0000
7F80
0000
ENDCHAR
STARTCHAR apl_downcarettilde
ENCODING 344
SWIDTH 642 0
DWIDTH 9 0
BBX 9 14 0 -3
BITMAP
3800
6D80
0700
0000
6180
3300
1E00
0C00
0000
0000
0000
0000
0000
0000
ENDCHAR
STARTCHAR apl_quotedot
ENCODING 345
SWIDTH 642 0
DWIDTH 9 0
BBX 9 14 0 -3
BITMAP
0000
1C00
1C00
0C00
0C00
0C00
0000
0000
0000
1C00
1C00
0000
0000
0000
ENDCHAR
STARTCHAR apl_Eunderbar
ENCODING 346
SWIDTH 642 0
DWIDTH 9 0
BBX 9 14 0 -3
BITMAP
0000
0000
7F80
6000
6000
6000
7E00
6000
6000
6000
7F80
0000
7F80
0000
ENDCHAR
STARTCHAR apl_stile
ENCODING 347
SWIDTH 642 0
DWIDTH 9 0
BBX 9 14 0 -3
BITMAP
0C00
0C00
0C00
0C00
0C00
0C00
0C00
0C00
0C00
0C00
0C00
0C00
0C00
0C00
ENDCHAR
STARTCHAR apl_Nunderbar
ENCODING 348
SWIDTH 642 0
DWIDTH 9 0
BBX 9 14 0 -3
BITMAP
0000
0000
6180
7180
7980
6D80
6780
6380
6180
6180
6180
0000
7F80
0000
ENDCHAR
STARTCHAR apl_quadslope
ENCODING 349
SWIDTH 642 0
DWIDTH 9 0
BBX 9 14 0 -3
BITMAP
7F80
6180
6180
7180
7980
6D80
6780
6380
6180
6180
7F80
0000
0000
0000
ENDCHAR
STARTCHAR apl_quadquote
ENCODING 350
SWIDTH 642 0
DWIDTH 9 0
BBX 9 14 0 -3
BITMAP
7F80
7D80
6D80
6D80
6D80
6180
6180
6180
6180
6180
7F80
0000
0000
0000
ENDCHAR
STARTCHAR apl_Iunderbar
ENCODING 351
SWIDTH 642 0
DWIDTH 9 0
BBX 9 14 0 -3
BITMAP
0000
0000
1E00
0C00
0C00
0C00
0C00
0C00
0C00
0C00
1E00
0000
1E00
0000
ENDCHAR
STARTCHAR apl_Uunderbar
ENCODING 352
SWIDTH 642 0
DWIDTH 9 0
BBX 9 14 0 -3
BITMAP
0000
0000
6180
6180
6180
6180
6180
6180
6180
6180
3F00
0000
7F80
0000
ENDCHAR
STARTCHAR apl_iotaunderbar
ENCODING 353
SWIDTH 642 0
DWIDTH 9 0
BBX 9 14 0 -3
BITMAP
0000
0000
0000
0000
3000
3000
3000
3000
3000
3600
1C00
0000
3E00
0000
ENDCHAR
STARTCHAR apl_downcaret
ENCODING 354
SWIDTH 642 0
DWIDTH 9 0
BBX 9 14 0 -3
BITMAP
0000
3300
1E00
0C00
0000
0000
0000
0000
0000
0000
0000
0000
0000
0000
ENDCHAR
STARTCHAR apl_circlebar
ENCODING 355
SWIDTH 642 0
DWIDTH 9 0
BBX 9 14 0 -3
BITMAP
0000
0000
0000
1E00
3300
6180
7F80
6180
3300
1E00
0000
0000
0000
0000
ENDCHAR
STARTCHAR apl_circlestar
ENCODING 356
SWIDTH 642 0
DWIDTH 9 0
BBX 9 14 0 -3
BITMAP
0000
0000
0000
1E00
3F00
7F80
6D80
7F80
3300
1E00
0000
0000
0000
0000
ENDCHAR
STARTCHAR apl_Wunderbar
ENCODING 357
SWIDTH 642 0
DWIDTH 9 0
BBX 9 14 0 -3
BITMAP
0000
0000
6180
6180
6180
6180
6D80
6D80
6D80
7F80
3300
0000
7F80
0000
ENDCHAR
STARTCHAR apl_uptackjot
ENCODING 358
SWIDTH 642 0
DWIDTH 9 0
BBX 9 14 0 -3
BITMAP
0000
0000
0000
3F00
0C00
1E00
3F00
3F00
1E00
0C00
0C00
0000
0000
0000
ENDCHAR
STARTCHAR apl_downtackup
ENCODING 359
SWIDTH 642 0
DWIDTH 9 0
BBX 9 14 0 -3
BITMAP
0000
0000
0000
0000
3F00
0C00
0C00
0C00
0C00
0C00
3F00
0000
0000
0000
ENDCHAR
STARTCHAR apl_slashbar
ENCODING 360
SWIDTH 642 0
DWIDTH 9 0
BBX 9 14 0 -3
BITMAP
0000
0000
0000
0000
0300
0600
7F80
1800
3000
0000
0000
0000
0000
0000
ENDCHAR
STARTCHAR apl_rightshoe
ENCODING 362
SWIDTH 642 0
DWIDTH 9 0
BBX 9 14 0 -3
BITMAP
0000
0000
0000
0000
3E00
0300
0300
0300
3E00
0000
0000
0000
0000
0000
ENDCHAR
STARTCHAR apl_leftshoe
ENCODING 363
SWIDTH 642 0
DWIDTH 9 0
BBX 9 14 0 -3
BITMAP
0000
0000
0000
0000
1F00
3000
3000
3000
1F00
0000
0000
0000
0000
0000
ENDCHAR
STARTCHAR apl_uparrow
ENCODING 364
SWIDTH 642 0
DWIDTH 9 0
BBX 9 14 0 -3
BITMAP
0000
0000
0000
0C00
1E00
3F00
0C00
0C00
0C00
0C00
0C00
0000
0000
0000
ENDCHAR
STARTCHAR apl_downarrow
ENCODING 365
SWIDTH 642 0
DWIDTH 9 0
BBX 9 14 0 -3
BITMAP
0000
0000
0000
0C00
0C00
0C00
0C00
0C00
3F00
1E00
0C00
0000
0000
0000
ENDCHAR
STARTCHAR apl_upshoe
ENCODING 366
SWIDTH 642 0
DWIDTH 9 0
BBX 9 14 0 -3
BITMAP
0000
0000
0000
0000
1E00
3300
3300
3300
3300
3300
0000
0000
0000
0000
ENDCHAR
STARTCHAR apl_downshoe
ENCODING 367
SWIDTH 642 0
DWIDTH 9 0
BBX 9 14 0 -3
BITMAP
0000
0000
0000
0000
0000
3300
3300
3300
3300
3300
1E00
0000
0000
0000
ENDCHAR
STARTCHAR apl_Tunderbar
ENCODING 368
SWIDTH 642 0
DWIDTH 9 0
BBX 9 14 0 -3
BITMAP
0000
0000
7F80
0C00
0C00
0C00
0C00
0C00
0C00
0C00
0C00
0000
7F80
0000
ENDCHAR
STARTCHAR apl_quadjot
ENCODING 369
SWIDTH 642 0
DWIDTH 9 0
BBX 9 14 0 -3
BITMAP
7F80
6180
6180
7F80
7380
7380
7380
7F80
6180
6180
7F80
0000
0000
0000
ENDCHAR
STARTCHAR apl_righttack
ENCODING 370
SWIDTH 642 0
DWIDTH 9 0
BBX 9 14 0 -3
BITMAP
0000
0000
0000
0300
0300
0300
3F00
0300
0300
0300
0000
0000
0000
0000
ENDCHAR
STARTCHAR apl_diaeresisdot
ENCODING 371
SWIDTH 642 0
DWIDTH 9 0
BBX 9 14 0 -3
BITMAP
0000
7380
7380
0000
0000
0000
0000
0000
1C00
1C00
0000
0000
0000
0000
ENDCHAR
STARTCHAR apl_deltaunderbar
ENCODING 372
SWIDTH 642 0
DWIDTH 9 0
BBX 9 14 0 -3
BITMAP
0000
0C00
0C00
1E00
1E00
3300
3300
6180
7F80
0000
7F80
0000
0000
0000
ENDCHAR
STARTCHAR apl_Sunderbar
ENCODING 373
SWIDTH 642 0
DWIDTH 9 0
BBX 9 14 0 -3
BITMAP
0000
0000
3F00
6180
6000
3800
0C00
0700
0180
6180
3F00
0000
7F80
0000
ENDCHAR
STARTCHAR apl_diaeresis
ENCODING 374
SWIDTH 642 0
DWIDTH 9 0
BBX 9 14 0 -3
BITMAP
0000
7380
7380
0000
0000
0000
0000
0000
0000
0000
0000
0000
0000
0000
ENDCHAR
STARTCHAR apl_lefttack
ENCODING 375
SWIDTH 642 0
DWIDTH 9 0
BBX 9 14 0 -3
BITMAP
0000
0000
0000
3000
3000
3000
3F00
3000
3000
3000
0000
0000
0000
0000
ENDCHAR
STARTCHAR apl_slopebar
ENCODING 376
SWIDTH 642 0
DWIDTH 9 0
BBX 9 14 0 -3
BITMAP
0000
0000
0000
0000
3000
1800
7F80
0600
0300
0000
0000
0000
0000
0000
ENDCHAR
STARTCHAR apl_deltilde
ENCODING 377
SWIDTH 642 0
DWIDTH 9 0
BBX 9 14 0 -3
BITMAP
0000
0000
7F80
6180
3300
3B00
7F80
1F00
0C00
0C00
0000
0000
0000
0000
ENDCHAR
STARTCHAR apl_Vunderbar
ENCODING 378
SWIDTH 642 0
DWIDTH 9 0
BBX 9 14 0 -3
BITMAP
0000
0000
6180
6180
3300
3300
3300
1E00
1E00
0C00
0C00
0000
7F80
0000
ENDCHAR
STARTCHAR apl_upcaret
ENCODING 379
SWIDTH 642 0
DWIDTH 9 0
BBX 9 14 0 -3
BITMAP
0000
0C00
1E00
3300
0000
0000
0000
0000
0000
0000
0000
0000
0000
0000
ENDCHAR
STARTCHAR apl_epsilonunderbar
ENCODING 380
SWIDTH 642 0
DWIDTH 9 0
BBX 9 14 0 -3
BITMAP
0000
0000
0000
0000
1F00
3000
6000
7E00
6000
3000
1F00
0000
7F00
0000
ENDCHAR
STARTCHAR apl_quaddivide
ENCODING 381
SWIDTH 642 0
DWIDTH 9 0
BBX 9 14 0 -3
BITMAP
7F80
6180
6D80
6D80
6180
7F80
6180
6D80
6D80
6180
7F80
0000
0000
0000
ENDCHAR
STARTCHAR apl_downtackjot
ENCODING 382
SWIDTH 642 0
DWIDTH 9 0
BBX 9 14 0 -3
BITMAP
0000
0000
0000
0C00
0C00
1E00
3F00
3F00
1E00
0C00
3F00
0000
0000
0000
ENDCHAR
STARTCHAR apl_Zunderbar
ENCODING 383
SWIDTH 642 0
DWIDTH 9 0
BBX 9 14 0 -3
BITMAP
0000
0000
7F80
0180
0300
0600
0C00
1800
3000
6000
7F80
0000
7F80
0000
ENDCHAR
STARTCHAR apl_2vertical
ENCODING 384
SWIDTH 642 0
DWIDTH 9 0
BBX 9 14 0 -3
BITMAP
6180
6180
6180
6180
6180
6180
6180
6180
6180
6180
6180
6180
6180
6180
ENDCHAR
STARTCHAR apl_2horizontal
ENCODING 385
SWIDTH 642 0
DWIDTH 9 0
BBX 9 14 0 -3
BITMAP
0000
FF80
0000
0000
0000
0000
0000
0000
0000
0000
0000
0000
FF80
0000
ENDCHAR
STARTCHAR apl_leftvbar
ENCODING 386
SWIDTH 642 0
DWIDTH 9 0
BBX 9 14 0 -3
BITMAP
6000
6000
6000
6000
6000
6000
6000
6000
6000
6000
6000
6000
6000
6000
ENDCHAR
STARTCHAR apl_rightvbar
ENCODING 387
SWIDTH 642 0
DWIDTH 9 0
BBX 9 14 0 -3
BITMAP
0180
0180
0180
0180
0180
0180
0180
0180
0180
0180
0180
0180
0180
0180
ENDCHAR
STARTCHAR apl_midvbar
ENCODING 388
SWIDTH 642 0
DWIDTH 9 0
BBX 9 14 0 -3
BITMAP
0C00
0C00
0C00
0C00
0C00
0C00
0C00
0C00
0C00
0C00
0C00
0C00
0C00
0C00
ENDCHAR
STARTCHAR apl_leftsolid
ENCODING 393
SWIDTH 642 0
DWIDTH 9 0
BBX 9 14 0 -3
BITMAP
FC00
FC00
FC00
FC00
FC00
FC00
FC00
FC00
FC00
FC00
FC00
FC00
FC00
FC00
ENDCHAR
STARTCHAR apl_rightsolid
ENCODING 394
SWIDTH 642 0
DWIDTH 9 0
BBX 9 14 0 -3
BITMAP
0F80
0F80
0F80
0F80
0F80
0F80
0F80
0F80
0F80
0F80
0F80
0F80
0F80
0F80
ENDCHAR
STARTCHAR apl_topsolid
ENCODING 395
SWIDTH 642 0
DWIDTH 9 0
BBX 9 14 0 -3
BITMAP
FF80
FF80
FF80
FF80
FF80
FF80
FF80
0000
0000
0000
0000
0000
0000
0000
ENDCHAR
STARTCHAR apl_bottomsolid
ENCODING 396
SWIDTH 642 0
DWIDTH 9 0
BBX 9 14 0 -3
BITMAP
0000
0000
0000
0000
0000
0000
FF80
FF80
FF80
FF80
FF80
FF80
FF80
FF80
ENDCHAR
STARTCHAR apl_solid
ENCODING 397
SWIDTH 642 0
DWIDTH 9 0
BBX 9 14 0 -3
BITMAP
FF80
FF80
FF80
FF80
FF80
FF80
FF80
FF80
FF80
FF80
FF80
FF80
FF80
FF80
ENDCHAR
STARTCHAR apl_midhbar
ENCODING 402
SWIDTH 642 0
DWIDTH 9 0
BBX 9 14 0 -3
BITMAP
0000
0000
0000
0000
0000
0000
FF80
0000
0000
0000
0000
0000
0000
0000
ENDCHAR
STARTCHAR apl_solidcircle
ENCODING 403
SWIDTH 642 0
DWIDTH 9 0
BBX 9 14 0 -3
BITMAP
0000
0000
0000
0000
0000
1E00
1E00
1E00
0000
0000
0000
0000
0000
0000
ENDCHAR
STARTCHAR apl_subn
ENCODING 404
SWIDTH 642 0
DWIDTH 9 0
BBX 9 14 0 -3
BITMAP
0000
0000
0000
0000
0000
0000
0000
3C00
3600
3600
3600
0000
0000
0000
ENDCHAR
STARTCHAR apl_splat
ENCODING 410
SWIDTH 642 0
DWIDTH 9 0
BBX 9 14 0 -3
BITMAP
0000
6180
3F00
3300
3300
3300
3300
3300
3300
3F00
6180
0000
0000
0000
ENDCHAR
STARTCHAR apl_diamond
ENCODING 411
SWIDTH 642 0
DWIDTH 9 0
BBX 9 14 0 -3
BITMAP
0000
0000
0C00
1E00
3300
6180
3300
1E00
0C00
0000
0000
0000
0000
0000
ENDCHAR
STARTCHAR apl_Gunderbar
ENCODING 412
SWIDTH 642 0
DWIDTH 9 0
BBX 9 14 0 -3
BITMAP
0000
0000
1E00
3300
6000
6000
6000
6F80
6300
3300
1F00
0000
7F80
0000
ENDCHAR
STARTCHAR apl_sub1
ENCODING 413
SWIDTH 642 0
DWIDTH 9 0
BBX 9 14 0 -3
BITMAP
0000
0000
0000
0000
0000
0000
0000
0C00
1C00
0C00
0C00
1E00
0000
0000
ENDCHAR
STARTCHAR apl_superlparen
ENCODING 416
SWIDTH 642 0
DWIDTH 9 0
BBX 9 14 0 -3
BITMAP
0000
0C00
1800
1800
1800
1800
0C00
0000
0000
0000
0000
0000
0000
0000
ENDCHAR
STARTCHAR apl_plus2
ENCODING 417
SWIDTH 642 0
DWIDTH 9 0
BBX 9 14 0 -3
BITMAP
0000
0000
0000
0000
0C00
0C00
3F00
0C00
0C00
0000
0000
0000
0000
0000
ENDCHAR
STARTCHAR apl_solidbox
ENCODING 418
SWIDTH 642 0
DWIDTH 9 0
BBX 9 14 0 -3
BITMAP
0000
0000
0000
0000
3F00
3F00
3F00
3F00
3F00
0000
0000
0000
0000
0000
ENDCHAR
STARTCHAR apl_lowerleft
ENCODING 419
SWIDTH 642 0
DWIDTH 9 0
BBX 9 14 0 -3
BITMAP
0C00
0C00
0C00
0C00
0C00
0C00
0F80
0000
0000
0000
0000
0000
0000
0000
ENDCHAR
STARTCHAR apl_upperleft
ENCODING 420
SWIDTH 642 0
DWIDTH 9 0
BBX 9 14 0 -3
BITMAP
0000
0000
0000
0000
0000
0000
0F80
0C00
0C00
0C00
0C00
0C00
0C00
0C00
ENDCHAR
STARTCHAR apl_leftjoin
ENCODING 421
SWIDTH 642 0
DWIDTH 9 0
BBX 9 14 0 -3
BITMAP
0C00
0C00
0C00
0C00
0C00
0C00
0F80
0C00
0C00
0C00
0C00
0C00
0C00
0C00
ENDCHAR
STARTCHAR apl_bottomjoin
ENCODING 422
SWIDTH 642 0
DWIDTH 9 0
BBX 9 14 0 -3
BITMAP
0C00
0C00
0C00
0C00
0C00
0C00
FF80
0000
0000
0000
0000
0000
0000
0000
ENDCHAR
STARTCHAR apl_section
ENCODING 423
SWIDTH 642 0
DWIDTH 9 0
BBX 9 14 0 -3
BITMAP
0000
1E00
3000
3000
7800
6C00
6600
3300
1B00
0F00
0600
0600
3C00
0000
ENDCHAR
STARTCHAR apl_superrparen
ENCODING 425
SWIDTH 642 0
DWIDTH 9 0
BBX 9 14 0 -3
BITMAP
0000
0C00
0600
0600
0600
0600
0C00
0000
0000
0000
0000
0000
0000
0000
ENDCHAR
STARTCHAR apl_minus2
ENCODING 426
SWIDTH 642 0
DWIDTH 9 0
BBX 9 14 0 -3
BITMAP
0000
0000
0000
0000
0000
0000
3F00
0000
0000
0000
0000
0000
0000
0000
ENDCHAR
STARTCHAR apl_intersect
ENCODING 427
SWIDTH 642 0
DWIDTH 9 0
BBX 9 14 0 -3
BITMAP
0C00
0C00
0C00
0C00
0C00
0C00
FF80
0C00
0C00
0C00
0C00
0C00
0C00
0C00
ENDCHAR
STARTCHAR apl_lowerright
ENCODING 428
SWIDTH 642 0
DWIDTH 9 0
BBX 9 14 0 -3
BITMAP
0C00
0C00
0C00
0C00
0C00
0C00
FC00
0000
0000
0000
0000
0000
0000
0000
ENDCHAR
STARTCHAR apl_upperright
ENCODING 429
SWIDTH 642 0
DWIDTH 9 0
BBX 9 14 0 -3
BITMAP
0000
0000
0000
0000
0000
0000
FC00
0C00
0C00
0C00
0C00
0C00
0C00
0C00
ENDCHAR
STARTCHAR apl_rightjoin
ENCODING 430
SWIDTH 642 0
DWIDTH 9 0
BBX 9 14 0 -3
BITMAP
0C00
0C00
0C00
0C00
0C00
0C00
FC00
0C00
0C00
0C00
0C00
0C00
0C00
0C00
ENDCHAR
STARTCHAR apl_topjoin
ENCODING 431
SWIDTH 642 0
DWIDTH 9 0
BBX 9 14 0 -3
BITMAP
0000
0000
0000
0000
0000
0000
FF80
0C00
0C00
0C00
0C00
0C00
0C00
0C00
ENDCHAR
STARTCHAR apl_paragraph
ENCODING 432
SWIDTH 642 0
DWIDTH 9 0
BBX 9 14 0 -3
BITMAP
0000
0000
0000
3F80
7F00
7F00
3F00
0F00
0F00
0F00
0F00
0000
0000
0000
ENDCHAR
STARTCHAR apl_sub2
ENCODING 434
SWIDTH 642 0
DWIDTH 9 0
BBX 9 14 0 -3
BITMAP
0000
0000
0000
0000
0000
0000
0000
3C00
0600
1C00
3000
3E00
0000
0000
ENDCHAR
STARTCHAR apl_sub3
ENCODING 435
SWIDTH 642 0
DWIDTH 9 0
BBX 9 14 0 -3
BITMAP
0000
0000
0000
0000
0000
0000
0000
3C00
0600
1C00
0600
3C00
0000
0000
ENDCHAR
STARTCHAR apl_plusminus
ENCODING 442
SWIDTH 642 0
DWIDTH 9 0
BBX 9 14 0 -3
BITMAP
0000
0000
0C00
0C00
0C00
7F80
0C00
0C00
0C00
0000
7F80
0000
0000
0000
ENDCHAR
STARTCHAR apl_tilde
ENCODING 443
SWIDTH 642 0
DWIDTH 9 0
BBX 9 14 0 -3
BITMAP
0000
3800
6D80
0700
0000
0000
0000
0000
0000
0000
0000
0000
0000
0000
ENDCHAR
STARTCHAR apl_Xunderbar
ENCODING 444
SWIDTH 642 0
DWIDTH 9 0
BBX 9 14 0 -3
BITMAP
0000
0000
6180
6180
3300
1E00
0C00
1E00
3300
6180
6180
0000
7F80
0000
ENDCHAR
STARTCHAR apl_Yunderbar
ENCODING 445
SWIDTH 642 0
DWIDTH 9 0
BBX 9 14 0 -3
BITMAP
0000
0000
6180
3300
1E00
0C00
0C00
0C00
0C00
0C00
0C00
0000
7F80
0000
ENDCHAR
STARTCHAR apl_omega
ENCODING 464
SWIDTH 642 0
DWIDTH 9 0
BBX 9 14 0 -3
BITMAP
0000
0000
0000
0000
0000
0000
3300
6180
6D80
6D80
3F00
0000
0000
0000
ENDCHAR
STARTCHAR apl_jot
ENCODING 465
SWIDTH 642 0
DWIDTH 9 0
BBX 9 14 0 -3
BITMAP
0000
0000
0000
0000
0000
1C00
3600
3600
1C00
0000
0000
0000
0000
0000
ENDCHAR
STARTCHAR apl_rightarrow
ENCODING 470
SWIDTH 642 0
DWIDTH 9 0
BBX 9 14 0 -3
BITMAP
0000
0000
0000
0000
0600
0700
FF80
0700
0600
0000
0000
0000
0000
0000
ENDCHAR
STARTCHAR apl_downtack
ENCODING 471
SWIDTH 642 0
DWIDTH 9 0
BBX 9 14 0 -3
BITMAP
0000
0000
0000
0000
0C00
0C00
0C00
0C00
0C00
0C00
3F00
0000
0000
0000
ENDCHAR
STARTCHAR apl_notless
ENCODING 473
SWIDTH 642 0
DWIDTH 9 0
BBX 9 14 0 -3
BITMAP
0000
0000
0000
7000
1C00
0700
1C00
7000
0000
7F00
0000
0000
0000
0000
ENDCHAR
STARTCHAR apl_notgreater
ENCODING 503
SWIDTH 642 0
DWIDTH 9 0
BBX 9 14 0 -3
BITMAP
0000
0000
0000
0700
1C00
7000
1C00
0700
0000
7F00
0000
0000
0000
0000
ENDCHAR
STARTCHAR apl_downstile
ENCODING 505
SWIDTH 642 0
DWIDTH 9 0
BBX 9 14 0 -3
BITMAP
0000
0000
1800
1800
1800
1800
1800
1800
1800
1800
1E00
0000
0000
0000
ENDCHAR
STARTCHAR 200
ENCODING 512
SWIDTH 642 0
DWIDTH 9 0
BBX 9 14 0 -3
BITMAP
3F00
3F00
3F00
3F00
3F00
3F00
3F00
3F00
3F00
3F00
3F00
3F00
3F00
3F00
ENDCHAR
STARTCHAR 201
ENCODING 513
SWIDTH 642 0
DWIDTH 9 0
BBX 9 14 0 -3
BITMAP
0000
0000
0000
0000
0C00
1E00
3F00
1E00
0C00
0000
0000
0000
0000
0000
ENDCHAR
STARTCHAR 202
ENCODING 514
SWIDTH 642 0
DWIDTH 9 0
BBX 9 14 0 -3
BITMAP
AA80
5500
AA80
5500
AA80
5500
AA80
5500
AA80
5500
AA80
5500
AA80
5500
ENDCHAR
STARTCHAR 203
ENCODING 515
SWIDTH 642 0
DWIDTH 9 0
BBX 9 14 0 -3
BITMAP
0000
7800
7800
7800
7800
7800
0000
0780
0300
0300
0300
0300
0000
0000
ENDCHAR
STARTCHAR 204
ENCODING 516
SWIDTH 642 0
DWIDTH 9 0
BBX 9 14 0 -3
BITMAP
0000
7800
6000
7000
6000
6000
0000
0780
0600
0700
0600
0600
0000
0000
ENDCHAR
STARTCHAR 205
ENCODING 517
SWIDTH 642 0
DWIDTH 9 0
BBX 9 14 0 -3
BITMAP
0000
3800
6000
6000
6000
3800
0000
0700
0780
0700
0780
0780
0000
0000
ENDCHAR
STARTCHAR 206
ENCODING 518
SWIDTH 642 0
DWIDTH 9 0
BBX 9 14 0 -3
BITMAP
0000
6000
6000
6000
6000
7800
0000
0780
0600
0700
0600
0600
0000
0000
ENDCHAR
STARTCHAR 207
ENCODING 519
SWIDTH 642 0
DWIDTH 9 0
BBX 9 14 0 -3
BITMAP
0000
1C00
3600
3600
1C00
0000
0000
0000
0000
0000
0000
0000
0000
0000
ENDCHAR
STARTCHAR 208
ENCODING 520
SWIDTH 642 0
DWIDTH 9 0
BBX 9 14 0 -3
BITMAP
0000
0000
0000
0C00
0C00
3F00
0C00
0C00
0000
3F00
0000
0000
0000
0000
ENDCHAR
STARTCHAR 209
ENCODING 521
SWIDTH 642 0
DWIDTH 9 0
BBX 9 14 0 -3
BITMAP
0000
6C00
7C00
7C00
6C00
6C00
0000
0600
0600
0600
0600
0780
0000
0000
ENDCHAR
STARTCHAR 20a
ENCODING 522
SWIDTH 642 0
DWIDTH 9 0
BBX 9 14 0 -3
BITMAP
0000
7800
7800
7800
3000
3000
0000
0780
0300
0300
0300
0300
0000
0000
ENDCHAR
STARTCHAR 20b
ENCODING 523
SWIDTH 642 0
DWIDTH 9 0
BBX 9 14 0 -3
BITMAP
0C00
0C00
0C00
0C00
0C00
FC00
0000
0000
0000
0000
0000
0000
0000
0000
ENDCHAR
STARTCHAR 20c
ENCODING 524
SWIDTH 642 0
DWIDTH 9 0
BBX 9 14 0 -3
BITMAP
0000
0000
0000
0000
0000
FC00
0C00
0C00
0C00
0C00
0C00
0C00
0C00
0C00
ENDCHAR
STARTCHAR 20d
ENCODING 525
SWIDTH 642 0
DWIDTH 9 0
BBX 9 14 0 -3
BITMAP
0000
0000
0000
0000
0000
0F80
0C00
0C00
0C00
0C00
0C00
0C00
0C00
0C00
ENDCHAR
STARTCHAR 20e
ENCODING 526
SWIDTH 642 0
DWIDTH 9 0
BBX 9 14 0 -3
BITMAP
0C00
0C00
0C00
0C00
0C00
0F80
0000
0000
0000
0000
0000
0000
0000
0000
ENDCHAR
STARTCHAR 20f
ENCODING 527
SWIDTH 642 0
DWIDTH 9 0
BBX 9 14 0 -3
BITMAP
0C00
0C00
0C00
0C00
0C00
FF80
0C00
0C00
0C00
0C00
0C00
0C00
0C00
0C00
ENDCHAR
STARTCHAR 210
ENCODING 528
SWIDTH 642 0
DWIDTH 9 0
BBX 9 14 0 -3
BITMAP
0000
FF80
0000
0000
0000
0000
0000
0000
0000
0000
0000
0000
0000
0000
ENDCHAR
STARTCHAR 211
ENCODING 529
SWIDTH 642 0
DWIDTH 9 0
BBX 9 14 0 -3
BITMAP
0000
0000
0000
FF80
0000
0000
0000
0000
0000
0000
0000
0000
0000
0000
ENDCHAR
STARTCHAR 212
ENCODING 530
SWIDTH 642 0
DWIDTH 9 0
BBX 9 14 0 -3
BITMAP
0000
0000
0000
0000
0000
FF80
0000
0000
0000
0000
0000
0000
0000
0000
ENDCHAR
STARTCHAR 213
ENCODING 531
SWIDTH 642 0
DWIDTH 9 0
BBX 9 14 0 -3
BITMAP
0000
0000
0000
0000
0000
0000
0000
FF80
0000
0000
0000
0000
0000
0000
ENDCHAR
STARTCHAR 214
ENCODING 532
SWIDTH 642 0
DWIDTH 9 0
BBX 9 14 0 -3
BITMAP
0000
0000
0000
0000
0000
0000
0000
0000
0000
FF80
0000
0000
0000
0000
ENDCHAR
STARTCHAR 215
ENCODING 533
SWIDTH 642 0
DWIDTH 9 0
BBX 9 14 0 -3
BITMAP
0C00
0C00
0C00
0C00
0C00
0F80
0C00
0C00
0C00
0C00
0C00
0C00
0C00
0C00
ENDCHAR
STARTCHAR 216
ENCODING 534
SWIDTH 642 0
DWIDTH 9 0
BBX 9 14 0 -3
BITMAP
0C00
0C00
0C00
0C00
0C00
FC00
0C00
0C00
0C00
0C00
0C00
0C00
0C00
0C00
ENDCHAR
STARTCHAR 217
ENCODING 535
SWIDTH 642 0
DWIDTH 9 0
BBX 9 14 0 -3
BITMAP
0C00
0C00
0C00
0C00
0C00
FF80
0000
0000
0000
0000
0000
0000
0000
0000
ENDCHAR
STARTCHAR 218
ENCODING 536
SWIDTH 642 0
DWIDTH 9 0
BBX 9 14 0 -3
BITMAP
0000
0000
0000
0000
0000
FF80
0C00
0C00
0C00
0C00
0C00
0C00
0C00
0C00
ENDCHAR
STARTCHAR 219
ENCODING 537
SWIDTH 642 0
DWIDTH 9 0
BBX 9 14 0 -3
BITMAP
0C00
0C00
0C00
0C00
0C00
0C00
0C00
0C00
0C00
0C00
0C00
0C00
0C00
0C00
ENDCHAR
STARTCHAR 21a
ENCODING 538
SWIDTH 642 0
DWIDTH 9 0
BBX 9 14 0 -3
BITMAP
0000
0000
0000
0700
1C00
7000
1C00
0700
0000
7F00
0000
0000
0000
0000
ENDCHAR
STARTCHAR 21b
ENCODING 539
SWIDTH 642 0
DWIDTH 9 0
BBX 9 14 0 -3
BITMAP
0000
0000
0000
7000
1C00
0700
1C00
7000
0000
7F00
0000
0000
0000
0000
ENDCHAR
STARTCHAR 21c
ENCODING 540
SWIDTH 642 0
DWIDTH 9 0
BBX 9 14 0 -3
BITMAP
0000
0000
0000
0000
3F80
1B00
1B00
1B00
1B00
1B00
3300
0000
0000
0000
ENDCHAR
STARTCHAR 21d
ENCODING 541
SWIDTH 642 0
DWIDTH 9 0
BBX 9 14 0 -3
BITMAP
0000
0000
0000
0300
0600
7F00
0C00
1800
7F00
3000
6000
0000
0000
0000
ENDCHAR
STARTCHAR 21e
ENCODING 542
SWIDTH 642 0
DWIDTH 9 0
BBX 9 14 0 -3
BITMAP
0000
0000
1C00
3600
3000
3000
7C00
3000
3000
7980
7F00
0000
0000
0000
ENDCHAR
STARTCHAR 21f
ENCODING 543
SWIDTH 642 0
DWIDTH 9 0
BBX 9 14 0 -3
BITMAP
0000
0000
0000
0000
0000
0000
1C00
1C00
0000
0000
0000
0000
0000
0000
ENDCHAR
ENDFONT
